<svg version="1.1" class="highcharts-root" style="font-family: Helvetica, Arial, sans-serif; font-size: 1rem;" xmlns="http://www.w3.org/2000/svg" width="703" height="400" viewBox="0 0 703 400" role="img" aria-label=""><desc>Created with Highcharts 11.1.0</desc><defs><filter id="highcharts-drop-shadow-1"><feDropShadow dx="1" dy="1" flood-color="#000000" flood-opacity="0.75" stdDeviation="2.5"></feDropShadow></filter><clipPath id="highcharts-32ryk49-22-"><rect x="0" y="0" width="645" height="289" fill="none"></rect></clipPath><clipPath id="highcharts-32ryk49-38-"><rect x="0" y="0" width="645" height="289" fill="none"></rect></clipPath></defs><rect fill="#ffffff" class="highcharts-background" filter="none" x="0" y="0" width="703" height="400" rx="0" ry="0"></rect><rect fill="none" class="highcharts-plot-background" x="48" y="34" width="645" height="289" filter="none"></rect><g class="highcharts-grid highcharts-xaxis-grid" data-z-index="1"><path fill="none" stroke="#e6e6e6" stroke-width="0" stroke-dasharray="none" data-z-index="1" class="highcharts-grid-line" d="M 90.5 34 L 90.5 323" opacity="1"></path><path fill="none" stroke="#e6e6e6" stroke-width="0" stroke-dasharray="none" data-z-index="1" class="highcharts-grid-line" d="M 133.5 34 L 133.5 323" opacity="1"></path><path fill="none" stroke="#e6e6e6" stroke-width="0" stroke-dasharray="none" data-z-index="1" class="highcharts-grid-line" d="M 176.5 34 L 176.5 323" opacity="1"></path><path fill="none" stroke="#e6e6e6" stroke-width="0" stroke-dasharray="none" data-z-index="1" class="highcharts-grid-line" d="M 219.5 34 L 219.5 323" opacity="1"></path><path fill="none" stroke="#e6e6e6" stroke-width="0" stroke-dasharray="none" data-z-index="1" class="highcharts-grid-line" d="M 262.5 34 L 262.5 323" opacity="1"></path><path fill="none" stroke="#e6e6e6" stroke-width="0" stroke-dasharray="none" data-z-index="1" class="highcharts-grid-line" d="M 305.5 34 L 305.5 323" opacity="1"></path><path fill="none" stroke="#e6e6e6" stroke-width="0" stroke-dasharray="none" data-z-index="1" class="highcharts-grid-line" d="M 348.5 34 L 348.5 323" opacity="1"></path><path fill="none" stroke="#e6e6e6" stroke-width="0" stroke-dasharray="none" data-z-index="1" class="highcharts-grid-line" d="M 391.5 34 L 391.5 323" opacity="1"></path><path fill="none" stroke="#e6e6e6" stroke-width="0" stroke-dasharray="none" data-z-index="1" class="highcharts-grid-line" d="M 434.5 34 L 434.5 323" opacity="1"></path><path fill="none" stroke="#e6e6e6" stroke-width="0" stroke-dasharray="none" data-z-index="1" class="highcharts-grid-line" d="M 477.5 34 L 477.5 323" opacity="1"></path><path fill="none" stroke="#e6e6e6" stroke-width="0" stroke-dasharray="none" data-z-index="1" class="highcharts-grid-line" d="M 520.5 34 L 520.5 323" opacity="1"></path><path fill="none" stroke="#e6e6e6" stroke-width="0" stroke-dasharray="none" data-z-index="1" class="highcharts-grid-line" d="M 563.5 34 L 563.5 323" opacity="1"></path><path fill="none" stroke="#e6e6e6" stroke-width="0" stroke-dasharray="none" data-z-index="1" class="highcharts-grid-line" d="M 606.5 34 L 606.5 323" opacity="1"></path><path fill="none" stroke="#e6e6e6" stroke-width="0" stroke-dasharray="none" data-z-index="1" class="highcharts-grid-line" d="M 649.5 34 L 649.5 323" opacity="1"></path><path fill="none" stroke="#e6e6e6" stroke-width="0" stroke-dasharray="none" data-z-index="1" class="highcharts-grid-line" d="M 692.5 34 L 692.5 323" opacity="1"></path><path fill="none" stroke="#e6e6e6" stroke-width="0" stroke-dasharray="none" data-z-index="1" class="highcharts-grid-line" d="M 47.5 34 L 47.5 323" opacity="1"></path></g><g class="highcharts-grid highcharts-yaxis-grid" data-z-index="1"><path fill="none" stroke="#e6e6e6" stroke-width="1" stroke-dasharray="none" data-z-index="1" class="highcharts-grid-line" d="M 48 323.5 L 693 323.5" opacity="1"></path><path fill="none" stroke="#e6e6e6" stroke-width="1" stroke-dasharray="none" data-z-index="1" class="highcharts-grid-line" d="M 48 251.5 L 693 251.5" opacity="1"></path><path fill="none" stroke="#e6e6e6" stroke-width="1" stroke-dasharray="none" data-z-index="1" class="highcharts-grid-line" d="M 48 179.5 L 693 179.5" opacity="1"></path><path fill="none" stroke="#e6e6e6" stroke-width="1" stroke-dasharray="none" data-z-index="1" class="highcharts-grid-line" d="M 48 106.5 L 693 106.5" opacity="1"></path><path fill="none" stroke="#e6e6e6" stroke-width="1" stroke-dasharray="none" data-z-index="1" class="highcharts-grid-line" d="M 48 33.5 L 693 33.5" opacity="1"></path></g><rect fill="none" class="highcharts-plot-border" data-z-index="1" stroke="#cccccc" stroke-width="0" x="48" y="34" width="645" height="289"></rect><g class="highcharts-axis highcharts-xaxis" data-z-index="2"><path fill="none" class="highcharts-axis-line" stroke="#333333" stroke-width="1" data-z-index="7" d="M 48 323.5 L 693 323.5"></path></g><g class="highcharts-axis highcharts-yaxis" data-z-index="2"><text x="18.550000190734863" data-z-index="7" text-anchor="middle" transform="translate(0,0) rotate(270 18.550000190734863 178.5)" class="highcharts-axis-title" style="color: rgb(102, 102, 102); font-size: 0.8em; fill: rgb(102, 102, 102);" y="178.5">Deaths per 1000 live births</text><path fill="none" class="highcharts-axis-line" stroke="#333333" stroke-width="0" data-z-index="7" d="M 48 34 L 48 323"></path></g><g class="highcharts-series-group" data-z-index="3" filter="none"><g class="highcharts-series highcharts-series-0 highcharts-line-series" data-z-index="0.1" opacity="1" transform="translate(48,34) scale(1 1)" clip-path="url(#highcharts-32ryk49-38-)"><path fill="none" d="M 21.5 84.24350000000001 L 64.5 72.53899999999999 L 107.5 58.52250000000001 L 150.5 53.32050000000001 L 193.5 54.043000000000006 L 236.5 51.15299999999999 L 279.5 71.31075000000001 L 322.5 115.88900000000001 L 365.5 157.57725 L 408.5 180.7695 L 451.5 203.3115 L 494.5 212.126 L 537.5 232.57274999999998 L 580.5 256.1985 L 623.5 270.793" class="highcharts-graph" data-z-index="1" stroke="#FF8080" stroke-width="5" stroke-linejoin="round" stroke-linecap="round" filter="none"></path><path fill="none" d="M 21.5 84.24350000000001 L 64.5 72.53899999999999 L 107.5 58.52250000000001 L 150.5 53.32050000000001 L 193.5 54.043000000000006 L 236.5 51.15299999999999 L 279.5 71.31075000000001 L 322.5 115.88900000000001 L 365.5 157.57725 L 408.5 180.7695 L 451.5 203.3115 L 494.5 212.126 L 537.5 232.57274999999998 L 580.5 256.1985 L 623.5 270.793" data-z-index="2" class="highcharts-tracker-line" stroke-linecap="round" stroke-linejoin="round" stroke="rgba(192,192,192,0.0001)" stroke-width="25"></path></g><g class="highcharts-markers highcharts-series-0 highcharts-line-series highcharts-tracker" data-z-index="0.1" opacity="1" transform="translate(48,34) scale(1 1)" clip-path="none"><path fill="#FF8080" d="M 21 88.24350000000001 A 4 4 0 1 1 21.003999999333335 88.24349800000017 Z" stroke="#ffffff" stroke-width="0" opacity="1" class="highcharts-point"></path><path fill="#FF8080" d="M 64 76.53899999999999 A 4 4 0 1 1 64.00399999933333 76.53899800000015 Z" stroke="#ffffff" stroke-width="0" opacity="1" class="highcharts-point"></path><path fill="#FF8080" d="M 107 62.52250000000001 A 4 4 0 1 1 107.00399999933333 62.522498000000176 Z" stroke="#ffffff" stroke-width="0" opacity="1" class="highcharts-point"></path><path fill="#FF8080" d="M 150 57.32050000000001 A 4 4 0 1 1 150.00399999933333 57.32049800000018 Z" stroke="#ffffff" stroke-width="0" opacity="1" class="highcharts-point"></path><path fill="#FF8080" d="M 193 58.043000000000006 A 4 4 0 1 1 193.00399999933333 58.042998000000175 Z" stroke="#ffffff" stroke-width="0" opacity="1" class="highcharts-point"></path><path fill="#FF8080" d="M 236 55.15299999999999 A 4 4 0 1 1 236.00399999933333 55.15299800000016 Z" stroke="#ffffff" stroke-width="0" opacity="1" class="highcharts-point"></path><path fill="#FF8080" d="M 279 75.31075000000001 A 4 4 0 1 1 279.00399999933336 75.31074800000017 Z" stroke="#ffffff" stroke-width="0" opacity="1" class="highcharts-point"></path><path fill="#FF8080" d="M 322 119.88900000000001 A 4 4 0 1 1 322.00399999933336 119.88899800000017 Z" stroke="#ffffff" stroke-width="0" opacity="1" class="highcharts-point"></path><path fill="#FF8080" d="M 365 161.57725 A 4 4 0 1 1 365.00399999933336 161.57724800000017 Z" stroke="#ffffff" stroke-width="0" opacity="1" class="highcharts-point"></path><path fill="#FF8080" d="M 408 184.7695 A 4 4 0 1 1 408.00399999933336 184.76949800000017 Z" stroke="#ffffff" stroke-width="0" opacity="1" class="highcharts-point"></path><path fill="#FF8080" d="M 451 207.3115 A 4 4 0 1 1 451.00399999933336 207.31149800000017 Z" stroke="#ffffff" stroke-width="0" opacity="1" class="highcharts-point"></path><path fill="#FF8080" d="M 494 216.126 A 4 4 0 1 1 494.00399999933336 216.12599800000018 Z" stroke="#ffffff" stroke-width="0" opacity="1" class="highcharts-point"></path><path fill="#FF8080" d="M 537 236.57274999999998 A 4 4 0 1 1 537.0039999993334 236.57274800000016 Z" stroke="#ffffff" stroke-width="0" opacity="1" class="highcharts-point"></path><path fill="#FF8080" d="M 580 260.1985 A 4 4 0 1 1 580.0039999993334 260.1984980000002 Z" stroke="#ffffff" stroke-width="0" opacity="1" class="highcharts-point"></path><path fill="#FF8080" d="M 623 274.793 A 4 4 0 1 1 623.0039999993334 274.7929980000002 Z" stroke="#ffffff" stroke-width="0" opacity="1" class="highcharts-point"></path></g></g><text x="352" text-anchor="middle" class="highcharts-title" data-z-index="4" style="font-size: 1.2em; color: rgb(51, 51, 51); font-weight: bold; fill: rgb(51, 51, 51);" y="19"></text><text x="352" text-anchor="middle" class="highcharts-subtitle" data-z-index="4" style="color: rgb(102, 102, 102); font-size: 0.8em; fill: rgb(102, 102, 102);" y="21">Total Fertility Rate in Senegal, 1955-Present</text><text x="10" text-anchor="start" class="highcharts-caption" data-z-index="4" style="color: rgb(102, 102, 102); font-size: 0.8em; fill: rgb(102, 102, 102);" y="394"></text><g class="highcharts-axis-labels highcharts-xaxis-labels" data-z-index="7"><text x="69.5" style="color: rgb(51, 51, 51); cursor: default; font-size: 0.8em; fill: rgb(51, 51, 51);" text-anchor="middle" transform="translate(0,0)" y="347" opacity="1">1955</text><text x="112.5" style="color: rgb(51, 51, 51); cursor: default; font-size: 0.8em; fill: rgb(51, 51, 51);" text-anchor="middle" transform="translate(0,0)" y="347" opacity="1">1960</text><text x="155.5" style="color: rgb(51, 51, 51); cursor: default; font-size: 0.8em; fill: rgb(51, 51, 51);" text-anchor="middle" transform="translate(0,0)" y="347" opacity="1">1965</text><text x="198.5" style="color: rgb(51, 51, 51); cursor: default; font-size: 0.8em; fill: rgb(51, 51, 51);" text-anchor="middle" transform="translate(0,0)" y="347" opacity="1">1970</text><text x="241.5" style="color: rgb(51, 51, 51); cursor: default; font-size: 0.8em; fill: rgb(51, 51, 51);" text-anchor="middle" transform="translate(0,0)" y="347" opacity="1">1975</text><text x="284.5" style="color: rgb(51, 51, 51); cursor: default; font-size: 0.8em; fill: rgb(51, 51, 51);" text-anchor="middle" transform="translate(0,0)" y="347" opacity="1">1980</text><text x="327.5" style="color: rgb(51, 51, 51); cursor: default; font-size: 0.8em; fill: rgb(51, 51, 51);" text-anchor="middle" transform="translate(0,0)" y="347" opacity="1">1985</text><text x="370.5" style="color: rgb(51, 51, 51); cursor: default; font-size: 0.8em; fill: rgb(51, 51, 51);" text-anchor="middle" transform="translate(0,0)" y="347" opacity="1">1990</text><text x="413.5" style="color: rgb(51, 51, 51); cursor: default; font-size: 0.8em; fill: rgb(51, 51, 51);" text-anchor="middle" transform="translate(0,0)" y="347" opacity="1">1995</text><text x="456.5" style="color: rgb(51, 51, 51); cursor: default; font-size: 0.8em; fill: rgb(51, 51, 51);" text-anchor="middle" transform="translate(0,0)" y="347" opacity="1">2000</text><text x="499.5" style="color: rgb(51, 51, 51); cursor: default; font-size: 0.8em; fill: rgb(51, 51, 51);" text-anchor="middle" transform="translate(0,0)" y="347" opacity="1">2005</text><text x="542.5" style="color: rgb(51, 51, 51); cursor: default; font-size: 0.8em; fill: rgb(51, 51, 51);" text-anchor="middle" transform="translate(0,0)" y="347" opacity="1">2010</text><text x="585.5" style="color: rgb(51, 51, 51); cursor: default; font-size: 0.8em; fill: rgb(51, 51, 51);" text-anchor="middle" transform="translate(0,0)" y="347" opacity="1">2015</text><text x="628.5" style="color: rgb(51, 51, 51); cursor: default; font-size: 0.8em; fill: rgb(51, 51, 51);" text-anchor="middle" transform="translate(0,0)" y="347" opacity="1">2020</text><text x="671.5" style="color: rgb(51, 51, 51); cursor: default; font-size: 0.8em; fill: rgb(51, 51, 51);" text-anchor="middle" transform="translate(0,0)" y="347" opacity="1">2023</text></g><g class="highcharts-axis-labels highcharts-yaxis-labels" data-z-index="7"><text x="33" style="color: rgb(51, 51, 51); cursor: default; font-size: 0.8em; fill: rgb(51, 51, 51);" text-anchor="end" transform="translate(0,0)" y="328" opacity="1">4</text><text x="33" style="color: rgb(51, 51, 51); cursor: default; font-size: 0.8em; fill: rgb(51, 51, 51);" text-anchor="end" transform="translate(0,0)" y="255" opacity="1">5</text><text x="33" style="color: rgb(51, 51, 51); cursor: default; font-size: 0.8em; fill: rgb(51, 51, 51);" text-anchor="end" transform="translate(0,0)" y="183" opacity="1">6</text><text x="33" style="color: rgb(51, 51, 51); cursor: default; font-size: 0.8em; fill: rgb(51, 51, 51);" text-anchor="end" transform="translate(0,0)" y="111" opacity="1">7</text><text x="33" style="color: rgb(51, 51, 51); cursor: default; font-size: 0.8em; fill: rgb(51, 51, 51);" text-anchor="end" transform="translate(0,0)" y="39" opacity="1">8</text></g><g class="highcharts-legend highcharts-no-tooltip" data-z-index="7" transform="translate(290,359)"><rect fill="none" class="highcharts-legend-box" rx="0" ry="0" stroke="#999999" stroke-width="0" filter="none" x="0" y="0" width="124" height="26"></rect><g data-z-index="1"><g><g class="highcharts-legend-item highcharts-line-series highcharts-color-undefined highcharts-series-0" data-z-index="1" transform="translate(8,3)"><path fill="none" class="highcharts-graph" stroke-width="5" stroke-linecap="round" d="M 2.5 10 L 13.5 10" stroke="#FF8080"></path><path fill="#FF8080" d="M 8 14 A 4 4 0 1 1 8.003999999333336 13.999998000000167 Z" class="highcharts-point" stroke="#ffffff" stroke-width="0" opacity="1"></path><text x="21" style="color: rgb(51, 51, 51); cursor: pointer; font-size: 0.8em; text-decoration: none; fill: rgb(51, 51, 51);" text-anchor="start" data-z-index="2" y="13">Total Fertility Rate (TFR)</text></g></g></g></g></svg>