<svg version="1.1" class="highcharts-root" style="font-family: Helvetica, Arial, sans-serif; font-size: 1rem;" xmlns="http://www.w3.org/2000/svg" width="703" height="400" viewBox="0 0 703 400" role="img" aria-label="Infant and Under Age 5 Mortality Rate in Senegal"><desc>Created with Highcharts 11.1.0</desc><defs><filter id="highcharts-drop-shadow-3"><feDropShadow dx="1" dy="1" flood-color="#000000" flood-opacity="0.75" stdDeviation="2.5"></feDropShadow></filter><clipPath id="highcharts-32ryk49-96-"><rect x="0" y="0" width="636" height="276" fill="none"></rect></clipPath><clipPath id="highcharts-32ryk49-113-"><rect x="0" y="0" width="636" height="276" fill="none"></rect></clipPath></defs><rect fill="#ffffff" class="highcharts-background" filter="none" x="0" y="0" width="703" height="400" rx="0" ry="0"></rect><rect fill="none" class="highcharts-plot-background" x="57" y="47" width="636" height="276" filter="none"></rect><g class="highcharts-grid highcharts-xaxis-grid" data-z-index="1"><path fill="none" stroke="#e6e6e6" stroke-width="0" stroke-dasharray="none" data-z-index="1" class="highcharts-grid-line" d="M 96.5 47 L 96.5 323" opacity="1"></path><path fill="none" stroke="#e6e6e6" stroke-width="0" stroke-dasharray="none" data-z-index="1" class="highcharts-grid-line" d="M 136.5 47 L 136.5 323" opacity="1"></path><path fill="none" stroke="#e6e6e6" stroke-width="0" stroke-dasharray="none" data-z-index="1" class="highcharts-grid-line" d="M 175.5 47 L 175.5 323" opacity="1"></path><path fill="none" stroke="#e6e6e6" stroke-width="0" stroke-dasharray="none" data-z-index="1" class="highcharts-grid-line" d="M 215.5 47 L 215.5 323" opacity="1"></path><path fill="none" stroke="#e6e6e6" stroke-width="0" stroke-dasharray="none" data-z-index="1" class="highcharts-grid-line" d="M 255.5 47 L 255.5 323" opacity="1"></path><path fill="none" stroke="#e6e6e6" stroke-width="0" stroke-dasharray="none" data-z-index="1" class="highcharts-grid-line" d="M 295.5 47 L 295.5 323" opacity="1"></path><path fill="none" stroke="#e6e6e6" stroke-width="0" stroke-dasharray="none" data-z-index="1" class="highcharts-grid-line" d="M 334.5 47 L 334.5 323" opacity="1"></path><path fill="none" stroke="#e6e6e6" stroke-width="0" stroke-dasharray="none" data-z-index="1" class="highcharts-grid-line" d="M 374.5 47 L 374.5 323" opacity="1"></path><path fill="none" stroke="#e6e6e6" stroke-width="0" stroke-dasharray="none" data-z-index="1" class="highcharts-grid-line" d="M 414.5 47 L 414.5 323" opacity="1"></path><path fill="none" stroke="#e6e6e6" stroke-width="0" stroke-dasharray="none" data-z-index="1" class="highcharts-grid-line" d="M 454.5 47 L 454.5 323" opacity="1"></path><path fill="none" stroke="#e6e6e6" stroke-width="0" stroke-dasharray="none" data-z-index="1" class="highcharts-grid-line" d="M 493.5 47 L 493.5 323" opacity="1"></path><path fill="none" stroke="#e6e6e6" stroke-width="0" stroke-dasharray="none" data-z-index="1" class="highcharts-grid-line" d="M 533.5 47 L 533.5 323" opacity="1"></path><path fill="none" stroke="#e6e6e6" stroke-width="0" stroke-dasharray="none" data-z-index="1" class="highcharts-grid-line" d="M 573.5 47 L 573.5 323" opacity="1"></path><path fill="none" stroke="#e6e6e6" stroke-width="0" stroke-dasharray="none" data-z-index="1" class="highcharts-grid-line" d="M 613.5 47 L 613.5 323" opacity="1"></path><path fill="none" stroke="#e6e6e6" stroke-width="0" stroke-dasharray="none" data-z-index="1" class="highcharts-grid-line" d="M 652.5 47 L 652.5 323" opacity="1"></path><path fill="none" stroke="#e6e6e6" stroke-width="0" stroke-dasharray="none" data-z-index="1" class="highcharts-grid-line" d="M 692.5 47 L 692.5 323" opacity="1"></path><path fill="none" stroke="#e6e6e6" stroke-width="0" stroke-dasharray="none" data-z-index="1" class="highcharts-grid-line" d="M 56.5 47 L 56.5 323" opacity="1"></path></g><g class="highcharts-grid highcharts-yaxis-grid" data-z-index="1"><path fill="none" stroke="#e6e6e6" stroke-width="1" stroke-dasharray="none" data-z-index="1" class="highcharts-grid-line" d="M 57 323.5 L 693 323.5" opacity="1"></path><path fill="none" stroke="#e6e6e6" stroke-width="1" stroke-dasharray="none" data-z-index="1" class="highcharts-grid-line" d="M 57 254.5 L 693 254.5" opacity="1"></path><path fill="none" stroke="#e6e6e6" stroke-width="1" stroke-dasharray="none" data-z-index="1" class="highcharts-grid-line" d="M 57 185.5 L 693 185.5" opacity="1"></path><path fill="none" stroke="#e6e6e6" stroke-width="1" stroke-dasharray="none" data-z-index="1" class="highcharts-grid-line" d="M 57 116.5 L 693 116.5" opacity="1"></path><path fill="none" stroke="#e6e6e6" stroke-width="1" stroke-dasharray="none" data-z-index="1" class="highcharts-grid-line" d="M 57 46.5 L 693 46.5" opacity="1"></path></g><rect fill="none" class="highcharts-plot-border" data-z-index="1" stroke="#cccccc" stroke-width="0" x="57" y="47" width="636" height="276"></rect><g class="highcharts-axis highcharts-xaxis" data-z-index="2"><path fill="none" class="highcharts-axis-line" stroke="#333333" stroke-width="1" data-z-index="7" d="M 57 323.5 L 693 323.5"></path></g><g class="highcharts-axis highcharts-yaxis" data-z-index="2"><text x="18.649999618530273" data-z-index="7" text-anchor="middle" transform="translate(0,0) rotate(270 18.649999618530273 185)" class="highcharts-axis-title" style="color: rgb(102, 102, 102); font-size: 0.8em; fill: rgb(102, 102, 102);" y="185">Deaths per 1000 live births</text><path fill="none" class="highcharts-axis-line" stroke="#333333" stroke-width="0" data-z-index="7" d="M 57 47 L 57 323"></path></g><g class="highcharts-series-group" data-z-index="3" filter="none"><g class="highcharts-series highcharts-series-0 highcharts-line-series" data-z-index="0.1" opacity="1" transform="translate(57,47) scale(1 1)" clip-path="url(#highcharts-32ryk49-113-)"><path fill="none" d="M 19.875 39.677760000000006 L 59.625 59.77884 L 99.375 69.50094000000001 L 139.125 68.14854 L 178.875 74.65731 L 218.625 99.70569 L 258.375 133.76202 L 298.125 156.36228 L 337.875 180.09620999999999 L 377.625 179.87817 L 417.375 186.21444 L 457.125 212.23089 L 496.875 230.57592 L 536.625 241.90503 L 576.375 249.71583 L 616.125 256.78281" class="highcharts-graph" data-z-index="1" stroke="#66CC00" stroke-width="5" stroke-linejoin="round" stroke-linecap="round" filter="none"></path><path fill="none" d="M 19.875 39.677760000000006 L 59.625 59.77884 L 99.375 69.50094000000001 L 139.125 68.14854 L 178.875 74.65731 L 218.625 99.70569 L 258.375 133.76202 L 298.125 156.36228 L 337.875 180.09620999999999 L 377.625 179.87817 L 417.375 186.21444 L 457.125 212.23089 L 496.875 230.57592 L 536.625 241.90503 L 576.375 249.71583 L 616.125 256.78281" data-z-index="2" class="highcharts-tracker-line" stroke-linecap="round" stroke-linejoin="round" stroke="rgba(192,192,192,0.0001)" stroke-width="25"></path></g><g class="highcharts-markers highcharts-series-0 highcharts-line-series highcharts-tracker" data-z-index="0.1" opacity="1" transform="translate(57,47) scale(1 1)" clip-path="none"><path fill="#66CC00" d="M 19 43.677760000000006 A 4 4 0 1 1 19.003999999333335 43.677758000000175 Z" stroke="#ffffff" stroke-width="0" opacity="1" class="highcharts-point"></path><path fill="#66CC00" d="M 59 63.77884 A 4 4 0 1 1 59.00399999933334 63.77883800000017 Z" stroke="#ffffff" stroke-width="0" opacity="1" class="highcharts-point"></path><path fill="#66CC00" d="M 99 73.50094000000001 A 4 4 0 1 1 99.00399999933333 73.50093800000018 Z" stroke="#ffffff" stroke-width="0" opacity="1" class="highcharts-point"></path><path fill="#66CC00" d="M 139 72.14854 A 4 4 0 1 1 139.00399999933333 72.14853800000016 Z" stroke="#ffffff" stroke-width="0" opacity="1" class="highcharts-point"></path><path fill="#66CC00" d="M 178 78.65731 A 4 4 0 1 1 178.00399999933333 78.65730800000016 Z" stroke="#ffffff" stroke-width="0" opacity="1" class="highcharts-point"></path><path fill="#66CC00" d="M 218 103.70569 A 4 4 0 1 1 218.00399999933333 103.70568800000017 Z" stroke="#ffffff" stroke-width="0" opacity="1" class="highcharts-point"></path><path fill="#66CC00" d="M 258 137.76202 A 4 4 0 1 1 258.00399999933336 137.76201800000018 Z" stroke="#ffffff" stroke-width="0" opacity="1" class="highcharts-point"></path><path fill="#66CC00" d="M 298 160.36228 A 4 4 0 1 1 298.00399999933336 160.36227800000017 Z" stroke="#ffffff" stroke-width="0" opacity="1" class="highcharts-point"></path><path fill="#66CC00" d="M 337 184.09620999999999 A 4 4 0 1 1 337.00399999933336 184.09620800000016 Z" stroke="#ffffff" stroke-width="0" opacity="1" class="highcharts-point"></path><path fill="#66CC00" d="M 377 183.87817 A 4 4 0 1 1 377.00399999933336 183.8781680000002 Z" stroke="#ffffff" stroke-width="0" opacity="1" class="highcharts-point"></path><path fill="#66CC00" d="M 417 190.21444 A 4 4 0 1 1 417.00399999933336 190.21443800000017 Z" stroke="#ffffff" stroke-width="0" opacity="1" class="highcharts-point"></path><path fill="#66CC00" d="M 457 216.23089 A 4 4 0 1 1 457.00399999933336 216.23088800000016 Z" stroke="#ffffff" stroke-width="0" opacity="1" class="highcharts-point"></path><path fill="#66CC00" d="M 496 234.57592 A 4 4 0 1 1 496.00399999933336 234.57591800000017 Z" stroke="#ffffff" stroke-width="0" opacity="1" class="highcharts-point"></path><path fill="#66CC00" d="M 536 245.90503 A 4 4 0 1 1 536.0039999993334 245.9050280000002 Z" stroke="#ffffff" stroke-width="0" opacity="1" class="highcharts-point"></path><path fill="#66CC00" d="M 576 253.71583 A 4 4 0 1 1 576.0039999993334 253.7158280000002 Z" stroke="#ffffff" stroke-width="0" opacity="1" class="highcharts-point"></path><path fill="#66CC00" d="M 616 260.78281 A 4 4 0 1 1 616.0039999993334 260.78280800000016 Z" stroke="#ffffff" stroke-width="0" opacity="1" class="highcharts-point"></path></g><g class="highcharts-series highcharts-series-1 highcharts-line-series" data-z-index="0.1" opacity="1" transform="translate(57,47) scale(1 1)" clip-path="url(#highcharts-32ryk49-113-)"><path fill="none" d="M 19.875 173.47359 L 59.625 180.50538 L 99.375 183.98919 L 139.125 183.51033 L 178.875 185.82942 L 218.625 194.91465 L 258.375 207.4692 L 298.125 216.20736 L 337.875 225.68658 L 377.625 225.60378 L 417.375 228.23268000000002 L 457.125 239.62872 L 496.875 248.37654 L 536.625 254.29329 L 576.375 258.63615 L 616.125 263.45235" class="highcharts-graph" data-z-index="1" stroke="#74E800" stroke-width="5" stroke-linejoin="round" stroke-linecap="round" filter="none"></path><path fill="none" d="M 19.875 173.47359 L 59.625 180.50538 L 99.375 183.98919 L 139.125 183.51033 L 178.875 185.82942 L 218.625 194.91465 L 258.375 207.4692 L 298.125 216.20736 L 337.875 225.68658 L 377.625 225.60378 L 417.375 228.23268000000002 L 457.125 239.62872 L 496.875 248.37654 L 536.625 254.29329 L 576.375 258.63615 L 616.125 263.45235" data-z-index="2" class="highcharts-tracker-line" stroke-linecap="round" stroke-linejoin="round" stroke="rgba(192,192,192,0.0001)" stroke-width="25"></path></g><g class="highcharts-markers highcharts-series-1 highcharts-line-series highcharts-tracker" data-z-index="0.1" opacity="1" transform="translate(57,47) scale(1 1)" clip-path="none"><path fill="#74E800" d="M 19 169.47359 L 23 173.47359 L 19 177.47359 L 15 173.47359 Z" stroke="#ffffff" stroke-width="0" opacity="1" class="highcharts-point"></path><path fill="#74E800" d="M 59 176.50538 L 63 180.50538 L 59 184.50538 L 55 180.50538 Z" stroke="#ffffff" stroke-width="0" opacity="1" class="highcharts-point"></path><path fill="#74E800" d="M 99 179.98919 L 103 183.98919 L 99 187.98919 L 95 183.98919 Z" stroke="#ffffff" stroke-width="0" opacity="1" class="highcharts-point"></path><path fill="#74E800" d="M 139 179.51033 L 143 183.51033 L 139 187.51033 L 135 183.51033 Z" stroke="#ffffff" stroke-width="0" opacity="1" class="highcharts-point"></path><path fill="#74E800" d="M 178 181.82942 L 182 185.82942 L 178 189.82942 L 174 185.82942 Z" stroke="#ffffff" stroke-width="0" opacity="1" class="highcharts-point"></path><path fill="#74E800" d="M 218 190.91465 L 222 194.91465 L 218 198.91465 L 214 194.91465 Z" stroke="#ffffff" stroke-width="0" opacity="1" class="highcharts-point"></path><path fill="#74E800" d="M 258 203.4692 L 262 207.4692 L 258 211.4692 L 254 207.4692 Z" stroke="#ffffff" stroke-width="0" opacity="1" class="highcharts-point"></path><path fill="#74E800" d="M 298 212.20736 L 302 216.20736 L 298 220.20736 L 294 216.20736 Z" stroke="#ffffff" stroke-width="0" opacity="1" class="highcharts-point"></path><path fill="#74E800" d="M 337 221.68658 L 341 225.68658 L 337 229.68658 L 333 225.68658 Z" stroke="#ffffff" stroke-width="0" opacity="1" class="highcharts-point"></path><path fill="#74E800" d="M 377 221.60378 L 381 225.60378 L 377 229.60378 L 373 225.60378 Z" stroke="#ffffff" stroke-width="0" opacity="1" class="highcharts-point"></path><path fill="#74E800" d="M 417 224.23268000000002 L 421 228.23268000000002 L 417 232.23268000000002 L 413 228.23268000000002 Z" stroke="#ffffff" stroke-width="0" opacity="1" class="highcharts-point"></path><path fill="#74E800" d="M 457 235.62872 L 461 239.62872 L 457 243.62872 L 453 239.62872 Z" stroke="#ffffff" stroke-width="0" opacity="1" class="highcharts-point"></path><path fill="#74E800" d="M 496 244.37654 L 500 248.37654 L 496 252.37654 L 492 248.37654 Z" stroke="#ffffff" stroke-width="0" opacity="1" class="highcharts-point"></path><path fill="#74E800" d="M 536 250.29329 L 540 254.29329 L 536 258.29329 L 532 254.29329 Z" stroke="#ffffff" stroke-width="0" opacity="1" class="highcharts-point"></path><path fill="#74E800" d="M 576 254.63615 L 580 258.63615 L 576 262.63615 L 572 258.63615 Z" stroke="#ffffff" stroke-width="0" opacity="1" class="highcharts-point"></path><path fill="#74E800" d="M 616 259.45235 L 620 263.45235 L 616 267.45235 L 612 263.45235 Z" stroke="#ffffff" stroke-width="0" opacity="1" class="highcharts-point"></path></g></g><text x="352" text-anchor="middle" class="highcharts-title" data-z-index="4" style="font-size: 1.2em; color: rgb(51, 51, 51); font-weight: bold; fill: rgb(51, 51, 51);" y="19">Infant and Under Age 5 Mortality Rate in Senegal</text><text x="352" text-anchor="middle" class="highcharts-subtitle" data-z-index="4" style="color: rgb(102, 102, 102); font-size: 0.8em; fill: rgb(102, 102, 102);" y="34">(per 1000 live births, 1950-Present)</text><text x="10" text-anchor="start" class="highcharts-caption" data-z-index="4" style="color: rgb(102, 102, 102); font-size: 0.8em; fill: rgb(102, 102, 102);" y="394"></text><g class="highcharts-axis-labels highcharts-xaxis-labels" data-z-index="7"><text x="76.875" style="color: rgb(51, 51, 51); cursor: default; font-size: 0.8em; fill: rgb(51, 51, 51);" text-anchor="middle" transform="translate(0,0)" y="347" opacity="1">1950</text><text x="116.625" style="color: rgb(51, 51, 51); cursor: default; font-size: 0.8em; fill: rgb(51, 51, 51);" text-anchor="middle" transform="translate(0,0)" y="347" opacity="1">1955</text><text x="156.375" style="color: rgb(51, 51, 51); cursor: default; font-size: 0.8em; fill: rgb(51, 51, 51);" text-anchor="middle" transform="translate(0,0)" y="347" opacity="1">1960</text><text x="196.125" style="color: rgb(51, 51, 51); cursor: default; font-size: 0.8em; fill: rgb(51, 51, 51);" text-anchor="middle" transform="translate(0,0)" y="347" opacity="1">1965</text><text x="235.875" style="color: rgb(51, 51, 51); cursor: default; font-size: 0.8em; fill: rgb(51, 51, 51);" text-anchor="middle" transform="translate(0,0)" y="347" opacity="1">1970</text><text x="275.625" style="color: rgb(51, 51, 51); cursor: default; font-size: 0.8em; fill: rgb(51, 51, 51);" text-anchor="middle" transform="translate(0,0)" y="347" opacity="1">1975</text><text x="315.375" style="color: rgb(51, 51, 51); cursor: default; font-size: 0.8em; fill: rgb(51, 51, 51);" text-anchor="middle" transform="translate(0,0)" y="347" opacity="1">1980</text><text x="355.125" style="color: rgb(51, 51, 51); cursor: default; font-size: 0.8em; fill: rgb(51, 51, 51);" text-anchor="middle" transform="translate(0,0)" y="347" opacity="1">1985</text><text x="394.875" style="color: rgb(51, 51, 51); cursor: default; font-size: 0.8em; fill: rgb(51, 51, 51);" text-anchor="middle" transform="translate(0,0)" y="347" opacity="1">1990</text><text x="434.625" style="color: rgb(51, 51, 51); cursor: default; font-size: 0.8em; fill: rgb(51, 51, 51);" text-anchor="middle" transform="translate(0,0)" y="347" opacity="1">1995</text><text x="474.375" style="color: rgb(51, 51, 51); cursor: default; font-size: 0.8em; fill: rgb(51, 51, 51);" text-anchor="middle" transform="translate(0,0)" y="347" opacity="1">2000</text><text x="514.125" style="color: rgb(51, 51, 51); cursor: default; font-size: 0.8em; fill: rgb(51, 51, 51);" text-anchor="middle" transform="translate(0,0)" y="347" opacity="1">2005</text><text x="553.875" style="color: rgb(51, 51, 51); cursor: default; font-size: 0.8em; fill: rgb(51, 51, 51);" text-anchor="middle" transform="translate(0,0)" y="347" opacity="1">2010</text><text x="593.625" style="color: rgb(51, 51, 51); cursor: default; font-size: 0.8em; fill: rgb(51, 51, 51);" text-anchor="middle" transform="translate(0,0)" y="347" opacity="1">2015</text><text x="633.375" style="color: rgb(51, 51, 51); cursor: default; font-size: 0.8em; fill: rgb(51, 51, 51);" text-anchor="middle" transform="translate(0,0)" y="347" opacity="1">2020</text><text x="673.125" style="color: rgb(51, 51, 51); cursor: default; font-size: 0.8em; fill: rgb(51, 51, 51);" text-anchor="middle" transform="translate(0,0)" y="347" opacity="1">2023</text></g><g class="highcharts-axis-labels highcharts-yaxis-labels" data-z-index="7"><text x="42" style="color: rgb(51, 51, 51); cursor: default; font-size: 0.8em; fill: rgb(51, 51, 51);" text-anchor="end" transform="translate(0,0)" y="328" opacity="1">0</text><text x="42" style="color: rgb(51, 51, 51); cursor: default; font-size: 0.8em; fill: rgb(51, 51, 51);" text-anchor="end" transform="translate(0,0)" y="259" opacity="1">100</text><text x="42" style="color: rgb(51, 51, 51); cursor: default; font-size: 0.8em; fill: rgb(51, 51, 51);" text-anchor="end" transform="translate(0,0)" y="190" opacity="1">200</text><text x="42" style="color: rgb(51, 51, 51); cursor: default; font-size: 0.8em; fill: rgb(51, 51, 51);" text-anchor="end" transform="translate(0,0)" y="121" opacity="1">300</text><text x="42" style="color: rgb(51, 51, 51); cursor: default; font-size: 0.8em; fill: rgb(51, 51, 51);" text-anchor="end" transform="translate(0,0)" y="52" opacity="1">400</text></g><g class="highcharts-legend highcharts-no-tooltip" data-z-index="7" transform="translate(250,359)"><rect fill="none" class="highcharts-legend-box" rx="0" ry="0" stroke="#999999" stroke-width="0" filter="none" x="0" y="0" width="202" height="26"></rect><g data-z-index="1"><g><g class="highcharts-legend-item highcharts-line-series highcharts-color-undefined highcharts-series-0" data-z-index="1" transform="translate(8,3)"><path fill="none" class="highcharts-graph" stroke-width="5" stroke-linecap="round" d="M 2.5 10 L 13.5 10" stroke="#66CC00"></path><path fill="#66CC00" d="M 8 14 A 4 4 0 1 1 8.003999999333336 13.999998000000167 Z" class="highcharts-point" stroke="#ffffff" stroke-width="0" opacity="1"></path><text x="21" style="color: rgb(51, 51, 51); cursor: pointer; font-size: 0.8em; text-decoration: none; fill: rgb(51, 51, 51);" text-anchor="start" data-z-index="2" y="13">Deaths Under Age 5</text></g><g class="highcharts-legend-item highcharts-line-series highcharts-color-undefined highcharts-series-1" data-z-index="1" transform="translate(121.08333587646484,3)"><path fill="none" class="highcharts-graph" stroke-width="5" stroke-linecap="round" d="M 2.5 10 L 13.5 10" stroke="#74E800"></path><path fill="#74E800" d="M 8 6 L 12 10 L 8 14 L 4 10 Z" class="highcharts-point" stroke="#ffffff" stroke-width="0" opacity="1"></path><text x="21" y="13" style="color: rgb(51, 51, 51); cursor: pointer; font-size: 0.8em; text-decoration: none; fill: rgb(51, 51, 51);" text-anchor="start" data-z-index="2">Infant Mortality</text></g></g></g></g></svg>