<svg version="1.1" class="highcharts-root" style="font-family: Helvetica, Arial, sans-serif; font-size: 1rem;" xmlns="http://www.w3.org/2000/svg" width="703" height="400" viewBox="0 0 703 400" role="img" aria-label="Life Expectancy in Senegal from 1955 to Present"><desc>Created with Highcharts 11.1.0</desc><defs><filter id="highcharts-drop-shadow-2"><feDropShadow dx="1" dy="1" flood-color="#000000" flood-opacity="0.75" stdDeviation="2.5"></feDropShadow></filter><clipPath id="highcharts-32ryk49-43-"><rect x="0" y="0" width="640" height="276" fill="none"></rect></clipPath><clipPath id="highcharts-32ryk49-60-"><rect x="0" y="0" width="640" height="276" fill="none"></rect></clipPath></defs><rect fill="#ffffff" class="highcharts-background" filter="none" x="0" y="0" width="703" height="400" rx="0" ry="0"></rect><rect fill="none" class="highcharts-plot-background" x="53" y="47" width="640" height="276" filter="none"></rect><g class="highcharts-grid highcharts-xaxis-grid" data-z-index="1"><path fill="none" stroke="#e6e6e6" stroke-width="0" stroke-dasharray="none" data-z-index="1" class="highcharts-grid-line" d="M 92.5 47 L 92.5 323" opacity="1"></path><path fill="none" stroke="#e6e6e6" stroke-width="0" stroke-dasharray="none" data-z-index="1" class="highcharts-grid-line" d="M 132.5 47 L 132.5 323" opacity="1"></path><path fill="none" stroke="#e6e6e6" stroke-width="0" stroke-dasharray="none" data-z-index="1" class="highcharts-grid-line" d="M 172.5 47 L 172.5 323" opacity="1"></path><path fill="none" stroke="#e6e6e6" stroke-width="0" stroke-dasharray="none" data-z-index="1" class="highcharts-grid-line" d="M 212.5 47 L 212.5 323" opacity="1"></path><path fill="none" stroke="#e6e6e6" stroke-width="0" stroke-dasharray="none" data-z-index="1" class="highcharts-grid-line" d="M 252.5 47 L 252.5 323" opacity="1"></path><path fill="none" stroke="#e6e6e6" stroke-width="0" stroke-dasharray="none" data-z-index="1" class="highcharts-grid-line" d="M 292.5 47 L 292.5 323" opacity="1"></path><path fill="none" stroke="#e6e6e6" stroke-width="0" stroke-dasharray="none" data-z-index="1" class="highcharts-grid-line" d="M 332.5 47 L 332.5 323" opacity="1"></path><path fill="none" stroke="#e6e6e6" stroke-width="0" stroke-dasharray="none" data-z-index="1" class="highcharts-grid-line" d="M 372.5 47 L 372.5 323" opacity="1"></path><path fill="none" stroke="#e6e6e6" stroke-width="0" stroke-dasharray="none" data-z-index="1" class="highcharts-grid-line" d="M 412.5 47 L 412.5 323" opacity="1"></path><path fill="none" stroke="#e6e6e6" stroke-width="0" stroke-dasharray="none" data-z-index="1" class="highcharts-grid-line" d="M 452.5 47 L 452.5 323" opacity="1"></path><path fill="none" stroke="#e6e6e6" stroke-width="0" stroke-dasharray="none" data-z-index="1" class="highcharts-grid-line" d="M 492.5 47 L 492.5 323" opacity="1"></path><path fill="none" stroke="#e6e6e6" stroke-width="0" stroke-dasharray="none" data-z-index="1" class="highcharts-grid-line" d="M 532.5 47 L 532.5 323" opacity="1"></path><path fill="none" stroke="#e6e6e6" stroke-width="0" stroke-dasharray="none" data-z-index="1" class="highcharts-grid-line" d="M 572.5 47 L 572.5 323" opacity="1"></path><path fill="none" stroke="#e6e6e6" stroke-width="0" stroke-dasharray="none" data-z-index="1" class="highcharts-grid-line" d="M 612.5 47 L 612.5 323" opacity="1"></path><path fill="none" stroke="#e6e6e6" stroke-width="0" stroke-dasharray="none" data-z-index="1" class="highcharts-grid-line" d="M 652.5 47 L 652.5 323" opacity="1"></path><path fill="none" stroke="#e6e6e6" stroke-width="0" stroke-dasharray="none" data-z-index="1" class="highcharts-grid-line" d="M 692.5 47 L 692.5 323" opacity="1"></path><path fill="none" stroke="#e6e6e6" stroke-width="0" stroke-dasharray="none" data-z-index="1" class="highcharts-grid-line" d="M 52.5 47 L 52.5 323" opacity="1"></path></g><g class="highcharts-grid highcharts-yaxis-grid" data-z-index="1"><path fill="none" stroke="#e6e6e6" stroke-width="1" stroke-dasharray="none" data-z-index="1" class="highcharts-grid-line" d="M 53 323.5 L 693 323.5" opacity="1"></path><path fill="none" stroke="#e6e6e6" stroke-width="1" stroke-dasharray="none" data-z-index="1" class="highcharts-grid-line" d="M 53 254.5 L 693 254.5" opacity="1"></path><path fill="none" stroke="#e6e6e6" stroke-width="1" stroke-dasharray="none" data-z-index="1" class="highcharts-grid-line" d="M 53 185.5 L 693 185.5" opacity="1"></path><path fill="none" stroke="#e6e6e6" stroke-width="1" stroke-dasharray="none" data-z-index="1" class="highcharts-grid-line" d="M 53 116.5 L 693 116.5" opacity="1"></path><path fill="none" stroke="#e6e6e6" stroke-width="1" stroke-dasharray="none" data-z-index="1" class="highcharts-grid-line" d="M 53 46.5 L 693 46.5" opacity="1"></path></g><rect fill="none" class="highcharts-plot-border" data-z-index="1" stroke="#cccccc" stroke-width="0" x="53" y="47" width="640" height="276"></rect><g class="highcharts-axis highcharts-xaxis" data-z-index="2"><path fill="none" class="highcharts-axis-line" stroke="#333333" stroke-width="1" data-z-index="7" d="M 53 323.5 L 693 323.5"></path></g><g class="highcharts-axis highcharts-yaxis" data-z-index="2"><text x="19.100000381469727" data-z-index="7" text-anchor="middle" transform="translate(0,0) rotate(270 19.100000381469727 185)" class="highcharts-axis-title" style="color: rgb(102, 102, 102); font-size: 0.8em; fill: rgb(102, 102, 102);" y="185">Life Expectancy (Years)</text><path fill="none" class="highcharts-axis-line" stroke="#333333" stroke-width="0" data-z-index="7" d="M 53 47 L 53 323"></path></g><g class="highcharts-series-group" data-z-index="3" filter="none"><g class="highcharts-series highcharts-series-0 highcharts-column-series highcharts-tracker" data-z-index="0.1" opacity="1" transform="translate(53,47) scale(1 1)" clip-path="url(#highcharts-32ryk49-60-)"><path fill="#7cb5ec" d="M 13 151 L 15 151 A 3 3 0 0 1 18 154 L 18 277 A 0 0 0 0 1 18 277 L 10 277 A 0 0 0 0 1 10 277 L 10 154 A 3 3 0 0 1 13 151 Z" stroke="#ffffff" stroke-width="0" opacity="1" filter="none" class="highcharts-point"></path><path fill="#7cb5ec" d="M 53 143 L 55 143 A 3 3 0 0 1 58 146 L 58 277 A 0 0 0 0 1 58 277 L 50 277 A 0 0 0 0 1 50 277 L 50 146 A 3 3 0 0 1 53 143 Z" stroke="#ffffff" stroke-width="0" opacity="1" filter="none" class="highcharts-point"></path><path fill="#7cb5ec" d="M 93 140 L 95 140 A 3 3 0 0 1 98 143 L 98 277 A 0 0 0 0 1 98 277 L 90 277 A 0 0 0 0 1 90 277 L 90 143 A 3 3 0 0 1 93 140 Z" stroke="#ffffff" stroke-width="0" opacity="1" filter="none" class="highcharts-point"></path><path fill="#7cb5ec" d="M 133 140 L 135 140 A 3 3 0 0 1 138 143 L 138 277 A 0 0 0 0 1 138 277 L 130 277 A 0 0 0 0 1 130 277 L 130 143 A 3 3 0 0 1 133 140 Z" stroke="#ffffff" stroke-width="0" opacity="1" filter="none" class="highcharts-point"></path><path fill="#7cb5ec" d="M 173 137 L 175 137 A 3 3 0 0 1 178 140 L 178 277 A 0 0 0 0 1 178 277 L 170 277 A 0 0 0 0 1 170 277 L 170 140 A 3 3 0 0 1 173 137 Z" stroke="#ffffff" stroke-width="0" opacity="1" filter="none" class="highcharts-point"></path><path fill="#7cb5ec" d="M 213 127 L 215 127 A 3 3 0 0 1 218 130 L 218 277 A 0 0 0 0 1 218 277 L 210 277 A 0 0 0 0 1 210 277 L 210 130 A 3 3 0 0 1 213 127 Z" stroke="#ffffff" stroke-width="0" opacity="1" filter="none" class="highcharts-point"></path><path fill="#7cb5ec" d="M 253 112 L 255 112 A 3 3 0 0 1 258 115 L 258 277 A 0 0 0 0 1 258 277 L 250 277 A 0 0 0 0 1 250 277 L 250 115 A 3 3 0 0 1 253 112 Z" stroke="#ffffff" stroke-width="0" opacity="1" filter="none" class="highcharts-point"></path><path fill="#7cb5ec" d="M 293 101 L 295 101 A 3 3 0 0 1 298 104 L 298 277 A 0 0 0 0 1 298 277 L 290 277 A 0 0 0 0 1 290 277 L 290 104 A 3 3 0 0 1 293 101 Z" stroke="#ffffff" stroke-width="0" opacity="1" filter="none" class="highcharts-point"></path><path fill="#7cb5ec" d="M 333 88 L 335 88 A 3 3 0 0 1 338 91 L 338 277 A 0 0 0 0 1 338 277 L 330 277 A 0 0 0 0 1 330 277 L 330 91 A 3 3 0 0 1 333 88 Z" stroke="#ffffff" stroke-width="0" opacity="1" filter="none" class="highcharts-point"></path><path fill="#7cb5ec" d="M 373 87 L 375 87 A 3 3 0 0 1 378 90 L 378 277 A 0 0 0 0 1 378 277 L 370 277 A 0 0 0 0 1 370 277 L 370 90 A 3 3 0 0 1 373 87 Z" stroke="#ffffff" stroke-width="0" opacity="1" filter="none" class="highcharts-point"></path><path fill="#7cb5ec" d="M 413 85 L 415 85 A 3 3 0 0 1 418 88 L 418 277 A 0 0 0 0 1 418 277 L 410 277 A 0 0 0 0 1 410 277 L 410 88 A 3 3 0 0 1 413 85 Z" stroke="#ffffff" stroke-width="0" opacity="1" filter="none" class="highcharts-point"></path><path fill="#7cb5ec" d="M 453 71 L 455 71 A 3 3 0 0 1 458 74 L 458 277 A 0 0 0 0 1 458 277 L 450 277 A 0 0 0 0 1 450 277 L 450 74 A 3 3 0 0 1 453 71 Z" stroke="#ffffff" stroke-width="0" opacity="1" filter="none" class="highcharts-point"></path><path fill="#7cb5ec" d="M 493 60 L 495 60 A 3 3 0 0 1 498 63 L 498 277 A 0 0 0 0 1 498 277 L 490 277 A 0 0 0 0 1 490 277 L 490 63 A 3 3 0 0 1 493 60 Z" stroke="#ffffff" stroke-width="0" opacity="1" filter="none" class="highcharts-point"></path><path fill="#7cb5ec" d="M 533 54 L 535 54 A 3 3 0 0 1 538 57 L 538 277 A 0 0 0 0 1 538 277 L 530 277 A 0 0 0 0 1 530 277 L 530 57 A 3 3 0 0 1 533 54 Z" stroke="#ffffff" stroke-width="0" opacity="1" filter="none" class="highcharts-point"></path><path fill="#7cb5ec" d="M 573 51 L 575 51 A 3 3 0 0 1 578 54 L 578 277 A 0 0 0 0 1 578 277 L 570 277 A 0 0 0 0 1 570 277 L 570 54 A 3 3 0 0 1 573 51 Z" stroke="#ffffff" stroke-width="0" opacity="1" filter="none" class="highcharts-point"></path><path fill="#7cb5ec" d="M 613 47 L 615 47 A 3 3 0 0 1 618 50 L 618 277 A 0 0 0 0 1 618 277 L 610 277 A 0 0 0 0 1 610 277 L 610 50 A 3 3 0 0 1 613 47 Z" stroke="#ffffff" stroke-width="0" opacity="1" filter="none" class="highcharts-point"></path></g><g class="highcharts-markers highcharts-series-0 highcharts-column-series" data-z-index="0.1" opacity="1" transform="translate(53,47) scale(1 1)" clip-path="none"></g><g class="highcharts-series highcharts-series-1 highcharts-column-series highcharts-tracker" data-z-index="0.1" opacity="1" transform="translate(53,47) scale(1 1)" clip-path="url(#highcharts-32ryk49-60-)"><path fill="#f7a35c" d="M 25 152 L 27 152 A 3 3 0 0 1 30 155 L 30 277 A 0 0 0 0 1 30 277 L 22 277 A 0 0 0 0 1 22 277 L 22 155 A 3 3 0 0 1 25 152 Z" stroke="#ffffff" stroke-width="0" opacity="1" filter="none" class="highcharts-point"></path><path fill="#f7a35c" d="M 65 144 L 67 144 A 3 3 0 0 1 70 147 L 70 277 A 0 0 0 0 1 70 277 L 62 277 A 0 0 0 0 1 62 277 L 62 147 A 3 3 0 0 1 65 144 Z" stroke="#ffffff" stroke-width="0" opacity="1" filter="none" class="highcharts-point"></path><path fill="#f7a35c" d="M 105 139 L 107 139 A 3 3 0 0 1 110 142 L 110 277 A 0 0 0 0 1 110 277 L 102 277 A 0 0 0 0 1 102 277 L 102 142 A 3 3 0 0 1 105 139 Z" stroke="#ffffff" stroke-width="0" opacity="1" filter="none" class="highcharts-point"></path><path fill="#f7a35c" d="M 145 139 L 147 139 A 3 3 0 0 1 150 142 L 150 277 A 0 0 0 0 1 150 277 L 142 277 A 0 0 0 0 1 142 277 L 142 142 A 3 3 0 0 1 145 139 Z" stroke="#ffffff" stroke-width="0" opacity="1" filter="none" class="highcharts-point"></path><path fill="#f7a35c" d="M 185 135 L 187 135 A 3 3 0 0 1 190 138 L 190 277 A 0 0 0 0 1 190 277 L 182 277 A 0 0 0 0 1 182 277 L 182 138 A 3 3 0 0 1 185 135 Z" stroke="#ffffff" stroke-width="0" opacity="1" filter="none" class="highcharts-point"></path><path fill="#f7a35c" d="M 225 123 L 227 123 A 3 3 0 0 1 230 126 L 230 277 A 0 0 0 0 1 230 277 L 222 277 A 0 0 0 0 1 222 277 L 222 126 A 3 3 0 0 1 225 123 Z" stroke="#ffffff" stroke-width="0" opacity="1" filter="none" class="highcharts-point"></path><path fill="#f7a35c" d="M 265 103 L 267 103 A 3 3 0 0 1 270 106 L 270 277 A 0 0 0 0 1 270 277 L 262 277 A 0 0 0 0 1 262 277 L 262 106 A 3 3 0 0 1 265 103 Z" stroke="#ffffff" stroke-width="0" opacity="1" filter="none" class="highcharts-point"></path><path fill="#f7a35c" d="M 305 89 L 307 89 A 3 3 0 0 1 310 92 L 310 277 A 0 0 0 0 1 310 277 L 302 277 A 0 0 0 0 1 302 277 L 302 92 A 3 3 0 0 1 305 89 Z" stroke="#ffffff" stroke-width="0" opacity="1" filter="none" class="highcharts-point"></path><path fill="#f7a35c" d="M 345 73 L 347 73 A 3 3 0 0 1 350 76 L 350 277 A 0 0 0 0 1 350 277 L 342 277 A 0 0 0 0 1 342 277 L 342 76 A 3 3 0 0 1 345 73 Z" stroke="#ffffff" stroke-width="0" opacity="1" filter="none" class="highcharts-point"></path><path fill="#f7a35c" d="M 385 75 L 387 75 A 3 3 0 0 1 390 78 L 390 277 A 0 0 0 0 1 390 277 L 382 277 A 0 0 0 0 1 382 277 L 382 78 A 3 3 0 0 1 385 75 Z" stroke="#ffffff" stroke-width="0" opacity="1" filter="none" class="highcharts-point"></path><path fill="#f7a35c" d="M 425 77 L 427 77 A 3 3 0 0 1 430 80 L 430 277 A 0 0 0 0 1 430 277 L 422 277 A 0 0 0 0 1 422 277 L 422 80 A 3 3 0 0 1 425 77 Z" stroke="#ffffff" stroke-width="0" opacity="1" filter="none" class="highcharts-point"></path><path fill="#f7a35c" d="M 465 63 L 467 63 A 3 3 0 0 1 470 66 L 470 277 A 0 0 0 0 1 470 277 L 462 277 A 0 0 0 0 1 462 277 L 462 66 A 3 3 0 0 1 465 63 Z" stroke="#ffffff" stroke-width="0" opacity="1" filter="none" class="highcharts-point"></path><path fill="#f7a35c" d="M 505 48 L 507 48 A 3 3 0 0 1 510 51 L 510 277 A 0 0 0 0 1 510 277 L 502 277 A 0 0 0 0 1 502 277 L 502 51 A 3 3 0 0 1 505 48 Z" stroke="#ffffff" stroke-width="0" opacity="1" filter="none" class="highcharts-point"></path><path fill="#f7a35c" d="M 545 39 L 547 39 A 3 3 0 0 1 550 42 L 550 277 A 0 0 0 0 1 550 277 L 542 277 A 0 0 0 0 1 542 277 L 542 42 A 3 3 0 0 1 545 39 Z" stroke="#ffffff" stroke-width="0" opacity="1" filter="none" class="highcharts-point"></path><path fill="#f7a35c" d="M 585 35 L 587 35 A 3 3 0 0 1 590 38 L 590 277 A 0 0 0 0 1 590 277 L 582 277 A 0 0 0 0 1 582 277 L 582 38 A 3 3 0 0 1 585 35 Z" stroke="#ffffff" stroke-width="0" opacity="1" filter="none" class="highcharts-point"></path><path fill="#f7a35c" d="M 625 29 L 627 29 A 3 3 0 0 1 630 32 L 630 277 A 0 0 0 0 1 630 277 L 622 277 A 0 0 0 0 1 622 277 L 622 32 A 3 3 0 0 1 625 29 Z" stroke="#ffffff" stroke-width="0" opacity="1" filter="none" class="highcharts-point"></path></g><g class="highcharts-markers highcharts-series-1 highcharts-column-series" data-z-index="0.1" opacity="1" transform="translate(53,47) scale(1 1)" clip-path="none"></g><g class="highcharts-series highcharts-series-2 highcharts-spline-series" data-z-index="0.1" opacity="1" transform="translate(53,47) scale(1 1)" clip-path="url(#highcharts-32ryk49-60-)"><path fill="none" d="M 20 150.30615 C 20 150.30615 44 145.08975 60 142.7127 C 76 140.33565000000002 84 138.4209 100 138.4209 C 116 138.4209 124 138.5589 140 138.5589 C 156 138.5589 164 138.09384000000003 180 135.15375 C 196 132.21366 204 129.59717999999998 220 123.85845 C 236 118.11972000000003 244 112.43481000000001 260 106.46010000000001 C 276 100.48539000000001 284 99.37104000000001 300 93.98490000000001 C 316 88.59876000000001 324 79.52940000000001 340 79.52940000000001 C 356 79.52940000000001 364 79.90545 380 79.90545 C 396 79.90545 404 79.90545 420 79.54665 C 436 79.18785 444 71.13693 460 65.84325000000001 C 476 60.54957000000001 484 57.19340999999999 500 53.07825 C 516 48.963089999999994 524 47.60724 540 45.26745 C 556 42.92766 564 43.05876 580 41.3793 C 596 39.69984 620 36.870149999999995 620 36.870149999999995" class="highcharts-graph" data-z-index="1" stroke="#ddd" stroke-width="1" stroke-linejoin="round" stroke-linecap="round" filter="none"></path><path fill="none" d="M 20 150.30615 C 20 150.30615 44 145.08975 60 142.7127 C 76 140.33565000000002 84 138.4209 100 138.4209 C 116 138.4209 124 138.5589 140 138.5589 C 156 138.5589 164 138.09384000000003 180 135.15375 C 196 132.21366 204 129.59717999999998 220 123.85845 C 236 118.11972000000003 244 112.43481000000001 260 106.46010000000001 C 276 100.48539000000001 284 99.37104000000001 300 93.98490000000001 C 316 88.59876000000001 324 79.52940000000001 340 79.52940000000001 C 356 79.52940000000001 364 79.90545 380 79.90545 C 396 79.90545 404 79.90545 420 79.54665 C 436 79.18785 444 71.13693 460 65.84325000000001 C 476 60.54957000000001 484 57.19340999999999 500 53.07825 C 516 48.963089999999994 524 47.60724 540 45.26745 C 556 42.92766 564 43.05876 580 41.3793 C 596 39.69984 620 36.870149999999995 620 36.870149999999995" data-z-index="2" class="highcharts-tracker-line" stroke-linecap="round" stroke-linejoin="round" stroke="rgba(192,192,192,0.0001)" stroke-width="21"></path></g><g class="highcharts-markers highcharts-series-2 highcharts-spline-series highcharts-tracker" data-z-index="0.1" opacity="1" transform="translate(53,47) scale(1 1)" clip-path="none"><path fill="#ddd" d="M 20 154 A 4 4 0 1 1 20.003999999333335 153.99999800000018 Z" stroke="#ffffff" stroke-width="0" opacity="1" class="highcharts-point"></path><path fill="#ddd" d="M 60 147 A 4 4 0 1 1 60.00399999933334 146.99999800000018 Z" stroke="#ffffff" stroke-width="0" opacity="1" class="highcharts-point"></path><path fill="#ddd" d="M 100 142 A 4 4 0 1 1 100.00399999933333 141.99999800000018 Z" stroke="#ffffff" stroke-width="0" opacity="1" class="highcharts-point"></path><path fill="#ddd" d="M 140 143 A 4 4 0 1 1 140.00399999933333 142.99999800000018 Z" stroke="#ffffff" stroke-width="0" opacity="1" class="highcharts-point"></path><path fill="#ddd" d="M 180 139 A 4 4 0 1 1 180.00399999933333 138.99999800000018 Z" stroke="#ffffff" stroke-width="0" opacity="1" class="highcharts-point"></path><path fill="#ddd" d="M 220 128 A 4 4 0 1 1 220.00399999933333 127.99999800000016 Z" stroke="#ffffff" stroke-width="0" opacity="1" class="highcharts-point"></path><path fill="#ddd" d="M 260 110 A 4 4 0 1 1 260.00399999933336 109.99999800000016 Z" stroke="#ffffff" stroke-width="0" opacity="1" class="highcharts-point"></path><path fill="#ddd" d="M 300 98 A 4 4 0 1 1 300.00399999933336 97.99999800000016 Z" stroke="#ffffff" stroke-width="0" opacity="1" class="highcharts-point"></path><path fill="#ddd" d="M 340 84 A 4 4 0 1 1 340.00399999933336 83.99999800000016 Z" stroke="#ffffff" stroke-width="0" opacity="1" class="highcharts-point"></path><path fill="#ddd" d="M 380 84 A 4 4 0 1 1 380.00399999933336 83.99999800000016 Z" stroke="#ffffff" stroke-width="0" opacity="1" class="highcharts-point"></path><path fill="#ddd" d="M 420 84 A 4 4 0 1 1 420.00399999933336 83.99999800000016 Z" stroke="#ffffff" stroke-width="0" opacity="1" class="highcharts-point"></path><path fill="#ddd" d="M 460 70 A 4 4 0 1 1 460.00399999933336 69.99999800000016 Z" stroke="#ffffff" stroke-width="0" opacity="1" class="highcharts-point"></path><path fill="#ddd" d="M 500 57 A 4 4 0 1 1 500.00399999933336 56.99999800000017 Z" stroke="#ffffff" stroke-width="0" opacity="1" class="highcharts-point"></path><path fill="#ddd" d="M 540 49 A 4 4 0 1 1 540.0039999993334 48.99999800000017 Z" stroke="#ffffff" stroke-width="0" opacity="1" class="highcharts-point"></path><path fill="#ddd" d="M 580 45 A 4 4 0 1 1 580.0039999993334 44.99999800000017 Z" stroke="#ffffff" stroke-width="0" opacity="1" class="highcharts-point"></path><path fill="#ddd" d="M 620 41 A 4 4 0 1 1 620.0039999993334 40.99999800000017 Z" stroke="#ffffff" stroke-width="0" opacity="1" class="highcharts-point"></path></g></g><text x="352" text-anchor="middle" class="highcharts-title" data-z-index="4" style="font-size: 1.2em; color: rgb(51, 51, 51); font-weight: bold; fill: rgb(51, 51, 51);" y="19">Life Expectancy in Senegal from 1955 to Present</text><text x="352" text-anchor="middle" class="highcharts-subtitle" data-z-index="4" style="color: rgb(102, 102, 102); font-size: 0.8em; fill: rgb(102, 102, 102);" y="34">Males, Females, and Both Sexes combined</text><text x="10" text-anchor="start" class="highcharts-caption" data-z-index="4" style="color: rgb(102, 102, 102); font-size: 0.8em; fill: rgb(102, 102, 102);" y="394"></text><g class="highcharts-legend highcharts-no-tooltip" data-z-index="7" transform="translate(246,359)"><rect fill="none" class="highcharts-legend-box" rx="0" ry="0" stroke="#999999" stroke-width="0" filter="none" x="0" y="0" width="211" height="26"></rect><g data-z-index="1"><g><g class="highcharts-legend-item highcharts-column-series highcharts-color-undefined highcharts-series-0" data-z-index="1" transform="translate(8,3)"><text x="21" style="color: rgb(51, 51, 51); cursor: pointer; font-size: 0.8em; text-decoration: none; fill: rgb(51, 51, 51);" text-anchor="start" data-z-index="2" y="13">Males</text><rect x="4" y="6" rx="4" ry="4" width="8" height="8" fill="#7cb5ec" class="highcharts-point" data-z-index="3"></rect></g><g class="highcharts-legend-item highcharts-column-series highcharts-color-undefined highcharts-series-1" data-z-index="1" transform="translate(70.3166675567627,3)"><text x="21" y="13" style="color: rgb(51, 51, 51); cursor: pointer; font-size: 0.8em; text-decoration: none; fill: rgb(51, 51, 51);" text-anchor="start" data-z-index="2">Females</text><rect x="4" y="6" rx="4" ry="4" width="8" height="8" fill="#f7a35c" class="highcharts-point" data-z-index="3"></rect></g><g class="highcharts-legend-item highcharts-spline-series highcharts-color-undefined highcharts-series-2" data-z-index="1" transform="translate(141.78333473205566,3)"><path fill="none" class="highcharts-graph" stroke-width="1" stroke-linecap="round" d="M 0.5 10 L 15.5 10" stroke="#ddd"></path><path fill="#ddd" d="M 8 14 A 4 4 0 1 1 8.003999999333336 13.999998000000167 Z" class="highcharts-point" stroke="#ffffff" stroke-width="0" opacity="1"></path><text x="21" y="13" style="color: rgb(51, 51, 51); cursor: pointer; font-size: 0.8em; text-decoration: none; fill: rgb(51, 51, 51);" text-anchor="start" data-z-index="2">Both Sexes</text></g></g></g></g><g class="highcharts-axis-labels highcharts-xaxis-labels" data-z-index="7"><text x="73" style="color: rgb(51, 51, 51); cursor: default; font-size: 0.8em; fill: rgb(51, 51, 51);" text-anchor="middle" transform="translate(0,0)" y="347" opacity="1">1950</text><text x="113" style="color: rgb(51, 51, 51); cursor: default; font-size: 0.8em; fill: rgb(51, 51, 51);" text-anchor="middle" transform="translate(0,0)" y="347" opacity="1">1955</text><text x="153" style="color: rgb(51, 51, 51); cursor: default; font-size: 0.8em; fill: rgb(51, 51, 51);" text-anchor="middle" transform="translate(0,0)" y="347" opacity="1">1960</text><text x="193" style="color: rgb(51, 51, 51); cursor: default; font-size: 0.8em; fill: rgb(51, 51, 51);" text-anchor="middle" transform="translate(0,0)" y="347" opacity="1">1965</text><text x="233" style="color: rgb(51, 51, 51); cursor: default; font-size: 0.8em; fill: rgb(51, 51, 51);" text-anchor="middle" transform="translate(0,0)" y="347" opacity="1">1970</text><text x="273" style="color: rgb(51, 51, 51); cursor: default; font-size: 0.8em; fill: rgb(51, 51, 51);" text-anchor="middle" transform="translate(0,0)" y="347" opacity="1">1975</text><text x="313" style="color: rgb(51, 51, 51); cursor: default; font-size: 0.8em; fill: rgb(51, 51, 51);" text-anchor="middle" transform="translate(0,0)" y="347" opacity="1">1980</text><text x="353" style="color: rgb(51, 51, 51); cursor: default; font-size: 0.8em; fill: rgb(51, 51, 51);" text-anchor="middle" transform="translate(0,0)" y="347" opacity="1">1985</text><text x="393" style="color: rgb(51, 51, 51); cursor: default; font-size: 0.8em; fill: rgb(51, 51, 51);" text-anchor="middle" transform="translate(0,0)" y="347" opacity="1">1990</text><text x="433" style="color: rgb(51, 51, 51); cursor: default; font-size: 0.8em; fill: rgb(51, 51, 51);" text-anchor="middle" transform="translate(0,0)" y="347" opacity="1">1995</text><text x="473" style="color: rgb(51, 51, 51); cursor: default; font-size: 0.8em; fill: rgb(51, 51, 51);" text-anchor="middle" transform="translate(0,0)" y="347" opacity="1">2000</text><text x="513" style="color: rgb(51, 51, 51); cursor: default; font-size: 0.8em; fill: rgb(51, 51, 51);" text-anchor="middle" transform="translate(0,0)" y="347" opacity="1">2005</text><text x="553" style="color: rgb(51, 51, 51); cursor: default; font-size: 0.8em; fill: rgb(51, 51, 51);" text-anchor="middle" transform="translate(0,0)" y="347" opacity="1">2010</text><text x="593" style="color: rgb(51, 51, 51); cursor: default; font-size: 0.8em; fill: rgb(51, 51, 51);" text-anchor="middle" transform="translate(0,0)" y="347" opacity="1">2015</text><text x="633" style="color: rgb(51, 51, 51); cursor: default; font-size: 0.8em; fill: rgb(51, 51, 51);" text-anchor="middle" transform="translate(0,0)" y="347" opacity="1">2020</text><text x="673" style="color: rgb(51, 51, 51); cursor: default; font-size: 0.8em; fill: rgb(51, 51, 51);" text-anchor="middle" transform="translate(0,0)" y="347" opacity="1">2023</text></g><g class="highcharts-axis-labels highcharts-yaxis-labels" data-z-index="7"><text x="38" style="color: rgb(51, 51, 51); cursor: default; font-size: 0.8em; fill: rgb(51, 51, 51);" text-anchor="end" transform="translate(0,0)" y="328" opacity="1">0</text><text x="38" style="color: rgb(51, 51, 51); cursor: default; font-size: 0.8em; fill: rgb(51, 51, 51);" text-anchor="end" transform="translate(0,0)" y="259" opacity="1">20</text><text x="38" style="color: rgb(51, 51, 51); cursor: default; font-size: 0.8em; fill: rgb(51, 51, 51);" text-anchor="end" transform="translate(0,0)" y="190" opacity="1">40</text><text x="38" style="color: rgb(51, 51, 51); cursor: default; font-size: 0.8em; fill: rgb(51, 51, 51);" text-anchor="end" transform="translate(0,0)" y="121" opacity="1">60</text><text x="38" style="color: rgb(51, 51, 51); cursor: default; font-size: 0.8em; fill: rgb(51, 51, 51);" text-anchor="end" transform="translate(0,0)" y="52" opacity="1">80</text></g></svg>