<svg version="1.1" class="highcharts-root" style="font-family: Helvetica, Arial, sans-serif; font-size: 1rem;" xmlns="http://www.w3.org/2000/svg" width="703" height="400" viewBox="0 0 703 400" role="img" aria-label="Median Age in Senegal"><desc>Created with Highcharts 11.1.0</desc><defs><filter id="highcharts-drop-shadow-0"><feDropShadow dx="1" dy="1" flood-color="#000000" flood-opacity="0.75" stdDeviation="2.5"></feDropShadow></filter><clipPath id="highcharts-32ryk49-1-"><rect x="0" y="0" width="640" height="276" fill="none"></rect></clipPath><clipPath id="highcharts-32ryk49-17-"><rect x="0" y="0" width="640" height="276" fill="none"></rect></clipPath></defs><rect fill="#ffffff" class="highcharts-background" filter="none" x="0" y="0" width="703" height="400" rx="0" ry="0"></rect><rect fill="none" class="highcharts-plot-background" x="53" y="47" width="640" height="276" filter="none"></rect><g class="highcharts-grid highcharts-xaxis-grid" data-z-index="1"><path fill="none" stroke="#e6e6e6" stroke-width="0" stroke-dasharray="none" data-z-index="1" class="highcharts-grid-line" d="M 95.5 47 L 95.5 323" opacity="1"></path><path fill="none" stroke="#e6e6e6" stroke-width="0" stroke-dasharray="none" data-z-index="1" class="highcharts-grid-line" d="M 137.5 47 L 137.5 323" opacity="1"></path><path fill="none" stroke="#e6e6e6" stroke-width="0" stroke-dasharray="none" data-z-index="1" class="highcharts-grid-line" d="M 180.5 47 L 180.5 323" opacity="1"></path><path fill="none" stroke="#e6e6e6" stroke-width="0" stroke-dasharray="none" data-z-index="1" class="highcharts-grid-line" d="M 223.5 47 L 223.5 323" opacity="1"></path><path fill="none" stroke="#e6e6e6" stroke-width="0" stroke-dasharray="none" data-z-index="1" class="highcharts-grid-line" d="M 265.5 47 L 265.5 323" opacity="1"></path><path fill="none" stroke="#e6e6e6" stroke-width="0" stroke-dasharray="none" data-z-index="1" class="highcharts-grid-line" d="M 308.5 47 L 308.5 323" opacity="1"></path><path fill="none" stroke="#e6e6e6" stroke-width="0" stroke-dasharray="none" data-z-index="1" class="highcharts-grid-line" d="M 351.5 47 L 351.5 323" opacity="1"></path><path fill="none" stroke="#e6e6e6" stroke-width="0" stroke-dasharray="none" data-z-index="1" class="highcharts-grid-line" d="M 393.5 47 L 393.5 323" opacity="1"></path><path fill="none" stroke="#e6e6e6" stroke-width="0" stroke-dasharray="none" data-z-index="1" class="highcharts-grid-line" d="M 436.5 47 L 436.5 323" opacity="1"></path><path fill="none" stroke="#e6e6e6" stroke-width="0" stroke-dasharray="none" data-z-index="1" class="highcharts-grid-line" d="M 479.5 47 L 479.5 323" opacity="1"></path><path fill="none" stroke="#e6e6e6" stroke-width="0" stroke-dasharray="none" data-z-index="1" class="highcharts-grid-line" d="M 521.5 47 L 521.5 323" opacity="1"></path><path fill="none" stroke="#e6e6e6" stroke-width="0" stroke-dasharray="none" data-z-index="1" class="highcharts-grid-line" d="M 564.5 47 L 564.5 323" opacity="1"></path><path fill="none" stroke="#e6e6e6" stroke-width="0" stroke-dasharray="none" data-z-index="1" class="highcharts-grid-line" d="M 607.5 47 L 607.5 323" opacity="1"></path><path fill="none" stroke="#e6e6e6" stroke-width="0" stroke-dasharray="none" data-z-index="1" class="highcharts-grid-line" d="M 649.5 47 L 649.5 323" opacity="1"></path><path fill="none" stroke="#e6e6e6" stroke-width="0" stroke-dasharray="none" data-z-index="1" class="highcharts-grid-line" d="M 692.5 47 L 692.5 323" opacity="1"></path><path fill="none" stroke="#e6e6e6" stroke-width="0" stroke-dasharray="none" data-z-index="1" class="highcharts-grid-line" d="M 52.5 47 L 52.5 323" opacity="1"></path></g><g class="highcharts-grid highcharts-yaxis-grid" data-z-index="1"><path fill="none" stroke="#e6e6e6" stroke-width="1" stroke-dasharray="none" data-z-index="1" class="highcharts-grid-line" d="M 53 323.5 L 693 323.5" opacity="1"></path><path fill="none" stroke="#e6e6e6" stroke-width="1" stroke-dasharray="none" data-z-index="1" class="highcharts-grid-line" d="M 53 254.5 L 693 254.5" opacity="1"></path><path fill="none" stroke="#e6e6e6" stroke-width="1" stroke-dasharray="none" data-z-index="1" class="highcharts-grid-line" d="M 53 185.5 L 693 185.5" opacity="1"></path><path fill="none" stroke="#e6e6e6" stroke-width="1" stroke-dasharray="none" data-z-index="1" class="highcharts-grid-line" d="M 53 116.5 L 693 116.5" opacity="1"></path><path fill="none" stroke="#e6e6e6" stroke-width="1" stroke-dasharray="none" data-z-index="1" class="highcharts-grid-line" d="M 53 46.5 L 693 46.5" opacity="1"></path></g><rect fill="none" class="highcharts-plot-border" data-z-index="1" stroke="#cccccc" stroke-width="0" x="53" y="47" width="640" height="276"></rect><g class="highcharts-axis highcharts-xaxis" data-z-index="2"><path fill="none" class="highcharts-axis-line" stroke="#333333" stroke-width="1" data-z-index="7" d="M 53 323.5 L 693 323.5"></path></g><g class="highcharts-axis highcharts-yaxis" data-z-index="2"><text x="19.100000381469727" data-z-index="7" text-anchor="middle" transform="translate(0,0) rotate(270 19.100000381469727 185)" class="highcharts-axis-title" style="color: rgb(102, 102, 102); font-size: 0.8em; fill: rgb(102, 102, 102);" y="185">Median Age</text><path fill="none" class="highcharts-axis-line" stroke="#333333" stroke-width="0" data-z-index="7" d="M 53 47 L 53 323"></path></g><g class="highcharts-series-group" data-z-index="3" filter="none"><g class="highcharts-series highcharts-series-0 highcharts-line-series" data-z-index="0.1" opacity="1" transform="translate(53,47) scale(1 1)" clip-path="url(#highcharts-32ryk49-17-)"><path fill="none" d="M 21.333333333333 92.11500000000001 L 64 117.09299999999999 L 106.66666666667 137.655 L 149.33333333333 145.383 L 192 151.938 L 234.66666666666 213.624 L 277.33333333333 253.09199999999998 L 320 243.57 L 362.66666666666 208.311 L 405.33333333333 176.571 L 448 146.625 L 490.66666666666 132.411 L 533.33333333333 125.856 L 576 93.219 L 618.66666666666 66.58500000000001" class="highcharts-graph" data-z-index="1" stroke="#66CC00" stroke-width="5" stroke-linejoin="round" stroke-linecap="round" filter="none"></path><path fill="none" d="M 21.333333333333 92.11500000000001 L 64 117.09299999999999 L 106.66666666667 137.655 L 149.33333333333 145.383 L 192 151.938 L 234.66666666666 213.624 L 277.33333333333 253.09199999999998 L 320 243.57 L 362.66666666666 208.311 L 405.33333333333 176.571 L 448 146.625 L 490.66666666666 132.411 L 533.33333333333 125.856 L 576 93.219 L 618.66666666666 66.58500000000001" data-z-index="2" class="highcharts-tracker-line" stroke-linecap="round" stroke-linejoin="round" stroke="rgba(192,192,192,0.0001)" stroke-width="25"></path></g><g class="highcharts-markers highcharts-series-0 highcharts-line-series highcharts-tracker" data-z-index="0.1" opacity="1" transform="translate(53,47) scale(1 1)" clip-path="none"><path fill="#66CC00" d="M 21 96.11500000000001 A 4 4 0 1 1 21.003999999333335 96.11499800000017 Z" stroke="#ffffff" stroke-width="0" opacity="1" class="highcharts-point"></path><path fill="#66CC00" d="M 64 121.09299999999999 A 4 4 0 1 1 64.00399999933333 121.09299800000015 Z" stroke="#ffffff" stroke-width="0" opacity="1" class="highcharts-point"></path><path fill="#66CC00" d="M 106 141.655 A 4 4 0 1 1 106.00399999933333 141.65499800000018 Z" stroke="#ffffff" stroke-width="0" opacity="1" class="highcharts-point"></path><path fill="#66CC00" d="M 149 149.383 A 4 4 0 1 1 149.00399999933333 149.38299800000019 Z" stroke="#ffffff" stroke-width="0" opacity="1" class="highcharts-point"></path><path fill="#66CC00" d="M 192 155.938 A 4 4 0 1 1 192.00399999933333 155.93799800000016 Z" stroke="#ffffff" stroke-width="0" opacity="1" class="highcharts-point"></path><path fill="#66CC00" d="M 234 217.624 A 4 4 0 1 1 234.00399999933333 217.62399800000017 Z" stroke="#ffffff" stroke-width="0" opacity="1" class="highcharts-point"></path><path fill="#66CC00" d="M 277 257.092 A 4 4 0 1 1 277.00399999933336 257.09199800000016 Z" stroke="#ffffff" stroke-width="0" opacity="1" class="highcharts-point"></path><path fill="#66CC00" d="M 320 247.57 A 4 4 0 1 1 320.00399999933336 247.56999800000017 Z" stroke="#ffffff" stroke-width="0" opacity="1" class="highcharts-point"></path><path fill="#66CC00" d="M 362 212.311 A 4 4 0 1 1 362.00399999933336 212.31099800000018 Z" stroke="#ffffff" stroke-width="0" opacity="1" class="highcharts-point"></path><path fill="#66CC00" d="M 405 180.571 A 4 4 0 1 1 405.00399999933336 180.57099800000017 Z" stroke="#ffffff" stroke-width="0" opacity="1" class="highcharts-point"></path><path fill="#66CC00" d="M 448 150.625 A 4 4 0 1 1 448.00399999933336 150.62499800000018 Z" stroke="#ffffff" stroke-width="0" opacity="1" class="highcharts-point"></path><path fill="#66CC00" d="M 490 136.411 A 4 4 0 1 1 490.00399999933336 136.41099800000018 Z" stroke="#ffffff" stroke-width="0" opacity="1" class="highcharts-point"></path><path fill="#66CC00" d="M 533 129.856 A 4 4 0 1 1 533.0039999993334 129.85599800000017 Z" stroke="#ffffff" stroke-width="0" opacity="1" class="highcharts-point"></path><path fill="#66CC00" d="M 576 97.219 A 4 4 0 1 1 576.0039999993334 97.21899800000016 Z" stroke="#ffffff" stroke-width="0" opacity="1" class="highcharts-point"></path><path fill="#66CC00" d="M 618 70.58500000000001 A 4 4 0 1 1 618.0039999993334 70.58499800000017 Z" stroke="#ffffff" stroke-width="0" opacity="1" class="highcharts-point"></path></g></g><text x="352" text-anchor="middle" class="highcharts-title" data-z-index="4" style="font-size: 1.2em; color: rgb(51, 51, 51); font-weight: bold; fill: rgb(51, 51, 51);" y="19">Median Age in Senegal</text><text x="352" text-anchor="middle" class="highcharts-subtitle" data-z-index="4" style="color: rgb(102, 102, 102); font-size: 0.8em; fill: rgb(102, 102, 102);" y="34">(1955-Present)</text><text x="10" text-anchor="start" class="highcharts-caption" data-z-index="4" style="color: rgb(102, 102, 102); font-size: 0.8em; fill: rgb(102, 102, 102);" y="394"></text><g class="highcharts-axis-labels highcharts-xaxis-labels" data-z-index="7"><text x="74.33333333333267" style="color: rgb(51, 51, 51); cursor: default; font-size: 0.8em; fill: rgb(51, 51, 51);" text-anchor="middle" transform="translate(0,0)" y="347" opacity="1">1955</text><text x="116.99999999999666" style="color: rgb(51, 51, 51); cursor: default; font-size: 0.8em; fill: rgb(51, 51, 51);" text-anchor="middle" transform="translate(0,0)" y="347" opacity="1">1960</text><text x="159.66666666666666" style="color: rgb(51, 51, 51); cursor: default; font-size: 0.8em; fill: rgb(51, 51, 51);" text-anchor="middle" transform="translate(0,0)" y="347" opacity="1">1965</text><text x="202.33333333332666" style="color: rgb(51, 51, 51); cursor: default; font-size: 0.8em; fill: rgb(51, 51, 51);" text-anchor="middle" transform="translate(0,0)" y="347" opacity="1">1970</text><text x="244.99999999999667" style="color: rgb(51, 51, 51); cursor: default; font-size: 0.8em; fill: rgb(51, 51, 51);" text-anchor="middle" transform="translate(0,0)" y="347" opacity="1">1975</text><text x="287.6666666666667" style="color: rgb(51, 51, 51); cursor: default; font-size: 0.8em; fill: rgb(51, 51, 51);" text-anchor="middle" transform="translate(0,0)" y="347" opacity="1">1980</text><text x="330.33333333332666" style="color: rgb(51, 51, 51); cursor: default; font-size: 0.8em; fill: rgb(51, 51, 51);" text-anchor="middle" transform="translate(0,0)" y="347" opacity="1">1985</text><text x="372.9999999999967" style="color: rgb(51, 51, 51); cursor: default; font-size: 0.8em; fill: rgb(51, 51, 51);" text-anchor="middle" transform="translate(0,0)" y="347" opacity="1">1990</text><text x="415.6666666666667" style="color: rgb(51, 51, 51); cursor: default; font-size: 0.8em; fill: rgb(51, 51, 51);" text-anchor="middle" transform="translate(0,0)" y="347" opacity="1">1995</text><text x="458.33333333332666" style="color: rgb(51, 51, 51); cursor: default; font-size: 0.8em; fill: rgb(51, 51, 51);" text-anchor="middle" transform="translate(0,0)" y="347" opacity="1">2000</text><text x="500.99999999999665" style="color: rgb(51, 51, 51); cursor: default; font-size: 0.8em; fill: rgb(51, 51, 51);" text-anchor="middle" transform="translate(0,0)" y="347" opacity="1">2005</text><text x="543.6666666666666" style="color: rgb(51, 51, 51); cursor: default; font-size: 0.8em; fill: rgb(51, 51, 51);" text-anchor="middle" transform="translate(0,0)" y="347" opacity="1">2010</text><text x="586.3333333333267" style="color: rgb(51, 51, 51); cursor: default; font-size: 0.8em; fill: rgb(51, 51, 51);" text-anchor="middle" transform="translate(0,0)" y="347" opacity="1">2015</text><text x="628.9999999999966" style="color: rgb(51, 51, 51); cursor: default; font-size: 0.8em; fill: rgb(51, 51, 51);" text-anchor="middle" transform="translate(0,0)" y="347" opacity="1">2020</text><text x="671.6666666666666" style="color: rgb(51, 51, 51); cursor: default; font-size: 0.8em; fill: rgb(51, 51, 51);" text-anchor="middle" transform="translate(0,0)" y="347" opacity="1">2023</text></g><g class="highcharts-axis-labels highcharts-yaxis-labels" data-z-index="7"><text x="38" style="color: rgb(51, 51, 51); cursor: default; font-size: 0.8em; fill: rgb(51, 51, 51);" text-anchor="end" transform="translate(0,0)" y="328" opacity="1">15</text><text x="38" style="color: rgb(51, 51, 51); cursor: default; font-size: 0.8em; fill: rgb(51, 51, 51);" text-anchor="end" transform="translate(0,0)" y="259" opacity="1">16</text><text x="38" style="color: rgb(51, 51, 51); cursor: default; font-size: 0.8em; fill: rgb(51, 51, 51);" text-anchor="end" transform="translate(0,0)" y="190" opacity="1">17</text><text x="38" style="color: rgb(51, 51, 51); cursor: default; font-size: 0.8em; fill: rgb(51, 51, 51);" text-anchor="end" transform="translate(0,0)" y="121" opacity="1">18</text><text x="38" style="color: rgb(51, 51, 51); cursor: default; font-size: 0.8em; fill: rgb(51, 51, 51);" text-anchor="end" transform="translate(0,0)" y="52" opacity="1">19</text></g><g class="highcharts-legend highcharts-no-tooltip" data-z-index="7" transform="translate(312,359)"><rect fill="none" class="highcharts-legend-box" rx="0" ry="0" stroke="#999999" stroke-width="0" filter="none" x="0" y="0" width="79" height="26"></rect><g data-z-index="1"><g><g class="highcharts-legend-item highcharts-line-series highcharts-color-undefined highcharts-series-0" data-z-index="1" transform="translate(8,3)"><path fill="none" class="highcharts-graph" stroke-width="5" stroke-linecap="round" d="M 2.5 10 L 13.5 10" stroke="#66CC00"></path><path fill="#66CC00" d="M 8 14 A 4 4 0 1 1 8.003999999333336 13.999998000000167 Z" class="highcharts-point" stroke="#ffffff" stroke-width="0" opacity="1"></path><text x="21" style="color: rgb(51, 51, 51); cursor: pointer; font-size: 0.8em; text-decoration: none; fill: rgb(51, 51, 51);" text-anchor="start" data-z-index="2" y="13">Median Age</text></g></g></g></g></svg>