<svg version="1.1" class="highcharts-root" style="font-family: Helvetica, Arial, sans-serif; font-size: 1rem;" xmlns="http://www.w3.org/2000/svg" width="733" height="360" viewBox="0 0 733 360" role="img" aria-label="Senegal Urban vs. Rural Population from 1955 to 2020"><desc>Created with Highcharts 11.1.0</desc><defs><filter id="highcharts-drop-shadow-4"><feDropShadow dx="1" dy="1" flood-color="#000000" flood-opacity="0.75" stdDeviation="2.5"></feDropShadow></filter><clipPath id="highcharts-32ryk49-134-"><rect x="0" y="0" width="663" height="245" fill="none"></rect></clipPath><clipPath id="highcharts-32ryk49-150-"><rect x="0" y="0" width="663" height="245" fill="none"></rect></clipPath></defs><rect fill="#ffffff" class="highcharts-background" filter="none" x="0" y="0" width="733" height="360" rx="0" ry="0"></rect><rect fill="none" class="highcharts-plot-background" x="60" y="38" width="663" height="245" filter="none"></rect><g class="highcharts-grid highcharts-xaxis-grid" data-z-index="1"><path fill="none" stroke="#e6e6e6" stroke-width="0" stroke-dasharray="none" data-z-index="1" class="highcharts-grid-line" d="M 103.5 38 L 103.5 283" opacity="1"></path><path fill="none" stroke="#e6e6e6" stroke-width="0" stroke-dasharray="none" data-z-index="1" class="highcharts-grid-line" d="M 147.5 38 L 147.5 283" opacity="1"></path><path fill="none" stroke="#e6e6e6" stroke-width="0" stroke-dasharray="none" data-z-index="1" class="highcharts-grid-line" d="M 192.5 38 L 192.5 283" opacity="1"></path><path fill="none" stroke="#e6e6e6" stroke-width="0" stroke-dasharray="none" data-z-index="1" class="highcharts-grid-line" d="M 236.5 38 L 236.5 283" opacity="1"></path><path fill="none" stroke="#e6e6e6" stroke-width="0" stroke-dasharray="none" data-z-index="1" class="highcharts-grid-line" d="M 280.5 38 L 280.5 283" opacity="1"></path><path fill="none" stroke="#e6e6e6" stroke-width="0" stroke-dasharray="none" data-z-index="1" class="highcharts-grid-line" d="M 324.5 38 L 324.5 283" opacity="1"></path><path fill="none" stroke="#e6e6e6" stroke-width="0" stroke-dasharray="none" data-z-index="1" class="highcharts-grid-line" d="M 368.5 38 L 368.5 283" opacity="1"></path><path fill="none" stroke="#e6e6e6" stroke-width="0" stroke-dasharray="none" data-z-index="1" class="highcharts-grid-line" d="M 413.5 38 L 413.5 283" opacity="1"></path><path fill="none" stroke="#e6e6e6" stroke-width="0" stroke-dasharray="none" data-z-index="1" class="highcharts-grid-line" d="M 457.5 38 L 457.5 283" opacity="1"></path><path fill="none" stroke="#e6e6e6" stroke-width="0" stroke-dasharray="none" data-z-index="1" class="highcharts-grid-line" d="M 501.5 38 L 501.5 283" opacity="1"></path><path fill="none" stroke="#e6e6e6" stroke-width="0" stroke-dasharray="none" data-z-index="1" class="highcharts-grid-line" d="M 545.5 38 L 545.5 283" opacity="1"></path><path fill="none" stroke="#e6e6e6" stroke-width="0" stroke-dasharray="none" data-z-index="1" class="highcharts-grid-line" d="M 589.5 38 L 589.5 283" opacity="1"></path><path fill="none" stroke="#e6e6e6" stroke-width="0" stroke-dasharray="none" data-z-index="1" class="highcharts-grid-line" d="M 634.5 38 L 634.5 283" opacity="1"></path><path fill="none" stroke="#e6e6e6" stroke-width="0" stroke-dasharray="none" data-z-index="1" class="highcharts-grid-line" d="M 678.5 38 L 678.5 283" opacity="1"></path><path fill="none" stroke="#e6e6e6" stroke-width="0" stroke-dasharray="none" data-z-index="1" class="highcharts-grid-line" d="M 722.5 38 L 722.5 283" opacity="1"></path><path fill="none" stroke="#e6e6e6" stroke-width="0" stroke-dasharray="none" data-z-index="1" class="highcharts-grid-line" d="M 59.5 38 L 59.5 283" opacity="1"></path></g><g class="highcharts-grid highcharts-yaxis-grid" data-z-index="1"><path fill="none" stroke="#e6e6e6" stroke-width="1" stroke-dasharray="none" data-z-index="1" class="highcharts-grid-line" d="M 60 283.5 L 723 283.5" opacity="1"></path><path fill="none" stroke="#e6e6e6" stroke-width="1" stroke-dasharray="none" data-z-index="1" class="highcharts-grid-line" d="M 60 222.5 L 723 222.5" opacity="1"></path><path fill="none" stroke="#e6e6e6" stroke-width="1" stroke-dasharray="none" data-z-index="1" class="highcharts-grid-line" d="M 60 161.5 L 723 161.5" opacity="1"></path><path fill="none" stroke="#e6e6e6" stroke-width="1" stroke-dasharray="none" data-z-index="1" class="highcharts-grid-line" d="M 60 99.5 L 723 99.5" opacity="1"></path><path fill="none" stroke="#e6e6e6" stroke-width="1" stroke-dasharray="none" data-z-index="1" class="highcharts-grid-line" d="M 60 37.5 L 723 37.5" opacity="1"></path></g><rect fill="none" class="highcharts-plot-border" data-z-index="1" stroke="#cccccc" stroke-width="0" x="60" y="38" width="663" height="245"></rect><g class="highcharts-axis highcharts-xaxis" data-z-index="2"><path fill="none" class="highcharts-axis-line" stroke="#333333" stroke-width="1" data-z-index="7" d="M 60 283.5 L 723 283.5"></path></g><g class="highcharts-axis highcharts-yaxis" data-z-index="2"><text x="19.43333339691162" data-z-index="7" text-anchor="middle" transform="translate(0,0) rotate(270 19.43333339691162 160.5)" class="highcharts-axis-title" style="color: rgb(102, 102, 102); font-size: 0.8em; fill: rgb(102, 102, 102);" y="160.5">Urban Population</text><path fill="none" class="highcharts-axis-line" stroke="#333333" stroke-width="0" data-z-index="7" d="M 60 38 L 60 283"></path></g><g class="highcharts-series-group" data-z-index="3" filter="none"><g class="highcharts-series highcharts-series-0 highcharts-column-series highcharts-tracker" data-z-index="0.1" opacity="1" transform="translate(60,38) scale(1 1)" clip-path="url(#highcharts-32ryk49-150-)"><path fill="#74E800" d="M 6.5 210.5 L 36.5 210.5 A 3 3 0 0 1 39.5 213.5 L 39.5 238.5 A 0 0 0 0 1 39.5 238.5 L 3.5 238.5 A 0 0 0 0 1 3.5 238.5 L 3.5 213.5 A 3 3 0 0 1 6.5 210.5 Z" stroke="#ffffff" stroke-width="1" opacity="1" filter="none" class="highcharts-point"></path><path fill="#74E800" d="M 51.5 205.5 L 81.5 205.5 A 3 3 0 0 1 84.5 208.5 L 84.5 236.5 A 0 0 0 0 1 84.5 236.5 L 48.5 236.5 A 0 0 0 0 1 48.5 236.5 L 48.5 208.5 A 3 3 0 0 1 51.5 205.5 Z" stroke="#ffffff" stroke-width="1" opacity="1" filter="none" class="highcharts-point"></path><path fill="#74E800" d="M 95.5 199.5 L 125.5 199.5 A 3 3 0 0 1 128.5 202.5 L 128.5 233.5 A 0 0 0 0 1 128.5 233.5 L 92.5 233.5 A 0 0 0 0 1 92.5 233.5 L 92.5 202.5 A 3 3 0 0 1 95.5 199.5 Z" stroke="#ffffff" stroke-width="1" opacity="1" filter="none" class="highcharts-point"></path><path fill="#74E800" d="M 139.5 191.5 L 169.5 191.5 A 3 3 0 0 1 172.5 194.5 L 172.5 229.5 A 0 0 0 0 1 172.5 229.5 L 136.5 229.5 A 0 0 0 0 1 136.5 229.5 L 136.5 194.5 A 3 3 0 0 1 139.5 191.5 Z" stroke="#ffffff" stroke-width="1" opacity="1" filter="none" class="highcharts-point"></path><path fill="#74E800" d="M 183.5 183.5 L 213.5 183.5 A 3 3 0 0 1 216.5 186.5 L 216.5 225.5 A 0 0 0 0 1 216.5 225.5 L 180.5 225.5 A 0 0 0 0 1 180.5 225.5 L 180.5 186.5 A 3 3 0 0 1 183.5 183.5 Z" stroke="#ffffff" stroke-width="1" opacity="1" filter="none" class="highcharts-point"></path><path fill="#74E800" d="M 227.5 175.5 L 257.5 175.5 A 3 3 0 0 1 260.5 178.5 L 260.5 220.5 A 0 0 0 0 1 260.5 220.5 L 224.5 220.5 A 0 0 0 0 1 224.5 220.5 L 224.5 178.5 A 3 3 0 0 1 227.5 175.5 Z" stroke="#ffffff" stroke-width="1" opacity="1" filter="none" class="highcharts-point"></path><path fill="#74E800" d="M 272.5 165.5 L 302.5 165.5 A 3 3 0 0 1 305.5 168.5 L 305.5 215.5 A 0 0 0 0 1 305.5 215.5 L 269.5 215.5 A 0 0 0 0 1 269.5 215.5 L 269.5 168.5 A 3 3 0 0 1 272.5 165.5 Z" stroke="#ffffff" stroke-width="1" opacity="1" filter="none" class="highcharts-point"></path><path fill="#74E800" d="M 316.5 153.5 L 346.5 153.5 A 3 3 0 0 1 349.5 156.5 L 349.5 209.5 A 0 0 0 0 1 349.5 209.5 L 313.5 209.5 A 0 0 0 0 1 313.5 209.5 L 313.5 156.5 A 3 3 0 0 1 316.5 153.5 Z" stroke="#ffffff" stroke-width="1" opacity="1" filter="none" class="highcharts-point"></path><path fill="#74E800" d="M 360.5 139.5 L 390.5 139.5 A 3 3 0 0 1 393.5 142.5 L 393.5 203.5 A 0 0 0 0 1 393.5 203.5 L 357.5 203.5 A 0 0 0 0 1 357.5 203.5 L 357.5 142.5 A 3 3 0 0 1 360.5 139.5 Z" stroke="#ffffff" stroke-width="1" opacity="1" filter="none" class="highcharts-point"></path><path fill="#74E800" d="M 404.5 126.5 L 434.5 126.5 A 3 3 0 0 1 437.5 129.5 L 437.5 196.5 A 0 0 0 0 1 437.5 196.5 L 401.5 196.5 A 0 0 0 0 1 401.5 196.5 L 401.5 129.5 A 3 3 0 0 1 404.5 126.5 Z" stroke="#ffffff" stroke-width="1" opacity="1" filter="none" class="highcharts-point"></path><path fill="#74E800" d="M 448.5 111.5 L 478.5 111.5 A 3 3 0 0 1 481.5 114.5 L 481.5 188.5 A 0 0 0 0 1 481.5 188.5 L 445.5 188.5 A 0 0 0 0 1 445.5 188.5 L 445.5 114.5 A 3 3 0 0 1 448.5 111.5 Z" stroke="#ffffff" stroke-width="1" opacity="1" filter="none" class="highcharts-point"></path><path fill="#74E800" d="M 493.5 92.5 L 523.5 92.5 A 3 3 0 0 1 526.5 95.5 L 526.5 176.5 A 0 0 0 0 1 526.5 176.5 L 490.5 176.5 A 0 0 0 0 1 490.5 176.5 L 490.5 95.5 A 3 3 0 0 1 493.5 92.5 Z" stroke="#ffffff" stroke-width="1" opacity="1" filter="none" class="highcharts-point"></path><path fill="#74E800" d="M 537.5 69.5 L 567.5 69.5 A 3 3 0 0 1 570.5 72.5 L 570.5 161.5 A 0 0 0 0 1 570.5 161.5 L 534.5 161.5 A 0 0 0 0 1 534.5 161.5 L 534.5 72.5 A 3 3 0 0 1 537.5 69.5 Z" stroke="#ffffff" stroke-width="1" opacity="1" filter="none" class="highcharts-point"></path><path fill="#74E800" d="M 581.5 44.5 L 611.5 44.5 A 3 3 0 0 1 614.5 47.5 L 614.5 144.5 A 0 0 0 0 1 614.5 144.5 L 578.5 144.5 A 0 0 0 0 1 578.5 144.5 L 578.5 47.5 A 3 3 0 0 1 581.5 44.5 Z" stroke="#ffffff" stroke-width="1" opacity="1" filter="none" class="highcharts-point"></path><path fill="#74E800" d="M 625.5 27.5 L 655.5 27.5 A 3 3 0 0 1 658.5 30.5 L 658.5 132.5 A 0 0 0 0 1 658.5 132.5 L 622.5 132.5 A 0 0 0 0 1 622.5 132.5 L 622.5 30.5 A 3 3 0 0 1 625.5 27.5 Z" stroke="#ffffff" stroke-width="1" opacity="1" filter="none" class="highcharts-point"></path></g><g class="highcharts-markers highcharts-series-0 highcharts-column-series" data-z-index="0.1" opacity="1" transform="translate(60,38) scale(1 1)" clip-path="none"></g><g class="highcharts-series highcharts-series-1 highcharts-column-series highcharts-color-0 highcharts-tracker" data-z-index="0.1" opacity="1" transform="translate(60,38) scale(1 1)" clip-path="url(#highcharts-32ryk49-150-)"><path fill="#2caffe" d="M 3.5 238.5 L 39.5 238.5 A 0 0 0 0 1 39.5 238.5 L 39.5 245.5 A 0 0 0 0 1 39.5 245.5 L 3.5 245.5 A 0 0 0 0 1 3.5 245.5 L 3.5 238.5 A 0 0 0 0 1 3.5 238.5 Z" stroke="#ffffff" stroke-width="1" opacity="1" filter="none" class="highcharts-point highcharts-color-0"></path><path fill="#2caffe" d="M 48.5 236.5 L 84.5 236.5 A 0 0 0 0 1 84.5 236.5 L 84.5 245.5 A 0 0 0 0 1 84.5 245.5 L 48.5 245.5 A 0 0 0 0 1 48.5 245.5 L 48.5 236.5 A 0 0 0 0 1 48.5 236.5 Z" stroke="#ffffff" stroke-width="1" opacity="1" filter="none" class="highcharts-point highcharts-color-0"></path><path fill="#2caffe" d="M 92.5 233.5 L 128.5 233.5 A 0 0 0 0 1 128.5 233.5 L 128.5 245.5 A 0 0 0 0 1 128.5 245.5 L 92.5 245.5 A 0 0 0 0 1 92.5 245.5 L 92.5 233.5 A 0 0 0 0 1 92.5 233.5 Z" stroke="#ffffff" stroke-width="1" opacity="1" filter="none" class="highcharts-point highcharts-color-0"></path><path fill="#2caffe" d="M 136.5 229.5 L 172.5 229.5 A 0 0 0 0 1 172.5 229.5 L 172.5 245.5 A 0 0 0 0 1 172.5 245.5 L 136.5 245.5 A 0 0 0 0 1 136.5 245.5 L 136.5 229.5 A 0 0 0 0 1 136.5 229.5 Z" stroke="#ffffff" stroke-width="1" opacity="1" filter="none" class="highcharts-point highcharts-color-0"></path><path fill="#2caffe" d="M 180.5 225.5 L 216.5 225.5 A 0 0 0 0 1 216.5 225.5 L 216.5 245.5 A 0 0 0 0 1 216.5 245.5 L 180.5 245.5 A 0 0 0 0 1 180.5 245.5 L 180.5 225.5 A 0 0 0 0 1 180.5 225.5 Z" stroke="#ffffff" stroke-width="1" opacity="1" filter="none" class="highcharts-point highcharts-color-0"></path><path fill="#2caffe" d="M 224.5 220.5 L 260.5 220.5 A 0 0 0 0 1 260.5 220.5 L 260.5 245.5 A 0 0 0 0 1 260.5 245.5 L 224.5 245.5 A 0 0 0 0 1 224.5 245.5 L 224.5 220.5 A 0 0 0 0 1 224.5 220.5 Z" stroke="#ffffff" stroke-width="1" opacity="1" filter="none" class="highcharts-point highcharts-color-0"></path><path fill="#2caffe" d="M 269.5 215.5 L 305.5 215.5 A 0 0 0 0 1 305.5 215.5 L 305.5 245.5 A 0 0 0 0 1 305.5 245.5 L 269.5 245.5 A 0 0 0 0 1 269.5 245.5 L 269.5 215.5 A 0 0 0 0 1 269.5 215.5 Z" stroke="#ffffff" stroke-width="1" opacity="1" filter="none" class="highcharts-point highcharts-color-0"></path><path fill="#2caffe" d="M 313.5 209.5 L 349.5 209.5 A 0 0 0 0 1 349.5 209.5 L 349.5 245.5 A 0 0 0 0 1 349.5 245.5 L 313.5 245.5 A 0 0 0 0 1 313.5 245.5 L 313.5 209.5 A 0 0 0 0 1 313.5 209.5 Z" stroke="#ffffff" stroke-width="1" opacity="1" filter="none" class="highcharts-point highcharts-color-0"></path><path fill="#2caffe" d="M 357.5 203.5 L 393.5 203.5 A 0 0 0 0 1 393.5 203.5 L 393.5 245.5 A 0 0 0 0 1 393.5 245.5 L 357.5 245.5 A 0 0 0 0 1 357.5 245.5 L 357.5 203.5 A 0 0 0 0 1 357.5 203.5 Z" stroke="#ffffff" stroke-width="1" opacity="1" filter="none" class="highcharts-point highcharts-color-0"></path><path fill="#2caffe" d="M 401.5 196.5 L 437.5 196.5 A 0 0 0 0 1 437.5 196.5 L 437.5 245.5 A 0 0 0 0 1 437.5 245.5 L 401.5 245.5 A 0 0 0 0 1 401.5 245.5 L 401.5 196.5 A 0 0 0 0 1 401.5 196.5 Z" stroke="#ffffff" stroke-width="1" opacity="1" filter="none" class="highcharts-point highcharts-color-0"></path><path fill="#2caffe" d="M 445.5 188.5 L 481.5 188.5 A 0 0 0 0 1 481.5 188.5 L 481.5 245.5 A 0 0 0 0 1 481.5 245.5 L 445.5 245.5 A 0 0 0 0 1 445.5 245.5 L 445.5 188.5 A 0 0 0 0 1 445.5 188.5 Z" stroke="#ffffff" stroke-width="1" opacity="1" filter="none" class="highcharts-point highcharts-color-0"></path><path fill="#2caffe" d="M 490.5 176.5 L 526.5 176.5 A 0 0 0 0 1 526.5 176.5 L 526.5 245.5 A 0 0 0 0 1 526.5 245.5 L 490.5 245.5 A 0 0 0 0 1 490.5 245.5 L 490.5 176.5 A 0 0 0 0 1 490.5 176.5 Z" stroke="#ffffff" stroke-width="1" opacity="1" filter="none" class="highcharts-point highcharts-color-0"></path><path fill="#2caffe" d="M 534.5 161.5 L 570.5 161.5 A 0 0 0 0 1 570.5 161.5 L 570.5 245.5 A 0 0 0 0 1 570.5 245.5 L 534.5 245.5 A 0 0 0 0 1 534.5 245.5 L 534.5 161.5 A 0 0 0 0 1 534.5 161.5 Z" stroke="#ffffff" stroke-width="1" opacity="1" filter="none" class="highcharts-point highcharts-color-0"></path><path fill="#2caffe" d="M 578.5 144.5 L 614.5 144.5 A 0 0 0 0 1 614.5 144.5 L 614.5 245.5 A 0 0 0 0 1 614.5 245.5 L 578.5 245.5 A 0 0 0 0 1 578.5 245.5 L 578.5 144.5 A 0 0 0 0 1 578.5 144.5 Z" stroke="#ffffff" stroke-width="1" opacity="1" filter="none" class="highcharts-point highcharts-color-0"></path><path fill="#2caffe" d="M 622.5 132.5 L 658.5 132.5 A 0 0 0 0 1 658.5 132.5 L 658.5 245.5 A 0 0 0 0 1 658.5 245.5 L 622.5 245.5 A 0 0 0 0 1 622.5 245.5 L 622.5 132.5 A 0 0 0 0 1 622.5 132.5 Z" stroke="#ffffff" stroke-width="1" opacity="1" filter="none" class="highcharts-point highcharts-color-0"></path></g><g class="highcharts-markers highcharts-series-1 highcharts-column-series highcharts-color-0" data-z-index="0.1" opacity="1" transform="translate(60,38) scale(1 1)" clip-path="none"></g></g><text x="367" text-anchor="middle" class="highcharts-title" data-z-index="4" style="font-size: 1.2em; color: rgb(51, 51, 51); font-weight: bold; fill: rgb(51, 51, 51);" y="19">Senegal Urban vs. Rural Population from 1955 to 2020</text><text x="367" text-anchor="middle" class="highcharts-subtitle" data-z-index="4" style="color: rgb(102, 102, 102); font-size: 0.8em; fill: rgb(102, 102, 102);" y="34"></text><text x="10" text-anchor="start" class="highcharts-caption" data-z-index="4" style="color: rgb(102, 102, 102); font-size: 0.8em; fill: rgb(102, 102, 102);" y="354"></text><g class="highcharts-legend highcharts-no-tooltip" data-z-index="7" transform="translate(267,319)"><rect fill="none" class="highcharts-legend-box" rx="0" ry="0" stroke="#999999" stroke-width="0" filter="none" x="0" y="0" width="198" height="26"></rect><g data-z-index="1"><g><g class="highcharts-legend-item highcharts-column-series highcharts-color-undefined highcharts-series-0" data-z-index="1" transform="translate(8,3)"><text x="21" style="color: rgb(51, 51, 51); cursor: pointer; font-size: 0.8em; text-decoration: none; fill: rgb(51, 51, 51);" text-anchor="start" data-z-index="2" y="13">Rural Population</text><rect x="4" y="6" rx="4" ry="4" width="8" height="8" fill="#74E800" class="highcharts-point" data-z-index="3"></rect></g><g class="highcharts-legend-item highcharts-column-series highcharts-color-0 highcharts-series-1" data-z-index="1" transform="translate(107.73333358764648,3)"><text x="21" y="13" style="color: rgb(51, 51, 51); cursor: pointer; font-size: 0.8em; text-decoration: none; fill: rgb(51, 51, 51);" text-anchor="start" data-z-index="2">Urban Population</text><rect x="4" y="6" rx="4" ry="4" width="8" height="8" fill="#2caffe" class="highcharts-point" data-z-index="3"></rect></g></g></g></g><g class="highcharts-axis-labels highcharts-xaxis-labels" data-z-index="7"><text x="82.1" style="color: rgb(51, 51, 51); cursor: default; font-size: 0.8em; fill: rgb(51, 51, 51);" text-anchor="middle" transform="translate(0,0)" y="307" opacity="1">1955</text><text x="126.30000000000001" style="color: rgb(51, 51, 51); cursor: default; font-size: 0.8em; fill: rgb(51, 51, 51);" text-anchor="middle" transform="translate(0,0)" y="307" opacity="1">1960</text><text x="170.5" style="color: rgb(51, 51, 51); cursor: default; font-size: 0.8em; fill: rgb(51, 51, 51);" text-anchor="middle" transform="translate(0,0)" y="307" opacity="1">1965</text><text x="214.70000000000002" style="color: rgb(51, 51, 51); cursor: default; font-size: 0.8em; fill: rgb(51, 51, 51);" text-anchor="middle" transform="translate(0,0)" y="307" opacity="1">1970</text><text x="258.9" style="color: rgb(51, 51, 51); cursor: default; font-size: 0.8em; fill: rgb(51, 51, 51);" text-anchor="middle" transform="translate(0,0)" y="307" opacity="1">1975</text><text x="303.09999999999997" style="color: rgb(51, 51, 51); cursor: default; font-size: 0.8em; fill: rgb(51, 51, 51);" text-anchor="middle" transform="translate(0,0)" y="307" opacity="1">1980</text><text x="347.29999999999995" style="color: rgb(51, 51, 51); cursor: default; font-size: 0.8em; fill: rgb(51, 51, 51);" text-anchor="middle" transform="translate(0,0)" y="307" opacity="1">1985</text><text x="391.5" style="color: rgb(51, 51, 51); cursor: default; font-size: 0.8em; fill: rgb(51, 51, 51);" text-anchor="middle" transform="translate(0,0)" y="307" opacity="1">1990</text><text x="435.7" style="color: rgb(51, 51, 51); cursor: default; font-size: 0.8em; fill: rgb(51, 51, 51);" text-anchor="middle" transform="translate(0,0)" y="307" opacity="1">1995</text><text x="479.9" style="color: rgb(51, 51, 51); cursor: default; font-size: 0.8em; fill: rgb(51, 51, 51);" text-anchor="middle" transform="translate(0,0)" y="307" opacity="1">2000</text><text x="524.1" style="color: rgb(51, 51, 51); cursor: default; font-size: 0.8em; fill: rgb(51, 51, 51);" text-anchor="middle" transform="translate(0,0)" y="307" opacity="1">2005</text><text x="568.3" style="color: rgb(51, 51, 51); cursor: default; font-size: 0.8em; fill: rgb(51, 51, 51);" text-anchor="middle" transform="translate(0,0)" y="307" opacity="1">2010</text><text x="612.5" style="color: rgb(51, 51, 51); cursor: default; font-size: 0.8em; fill: rgb(51, 51, 51);" text-anchor="middle" transform="translate(0,0)" y="307" opacity="1">2015</text><text x="656.6999999999999" style="color: rgb(51, 51, 51); cursor: default; font-size: 0.8em; fill: rgb(51, 51, 51);" text-anchor="middle" transform="translate(0,0)" y="307" opacity="1">2020</text><text x="700.9" style="color: rgb(51, 51, 51); cursor: default; font-size: 0.8em; fill: rgb(51, 51, 51);" text-anchor="middle" transform="translate(0,0)" y="307" opacity="1">2023</text></g><g class="highcharts-axis-labels highcharts-yaxis-labels" data-z-index="7"><text x="45" style="color: rgb(51, 51, 51); cursor: default; font-size: 0.8em; fill: rgb(51, 51, 51);" text-anchor="end" transform="translate(0,0)" y="288" opacity="1">0</text><text x="45" style="color: rgb(51, 51, 51); cursor: default; font-size: 0.8em; fill: rgb(51, 51, 51);" text-anchor="end" transform="translate(0,0)" y="226" opacity="1">5M</text><text x="45" style="color: rgb(51, 51, 51); cursor: default; font-size: 0.8em; fill: rgb(51, 51, 51);" text-anchor="end" transform="translate(0,0)" y="165" opacity="1">10M</text><text x="45" style="color: rgb(51, 51, 51); cursor: default; font-size: 0.8em; fill: rgb(51, 51, 51);" text-anchor="end" transform="translate(0,0)" y="104" opacity="1">15M</text><text x="45" style="color: rgb(51, 51, 51); cursor: default; font-size: 0.8em; fill: rgb(51, 51, 51);" text-anchor="end" transform="translate(0,0)" y="43" opacity="1">20M</text></g></svg>